<?xml version="1.0" standalone="no"?>
<!DOCTYPE svg PUBLIC "-//W3C//DTD SVG 1.1//EN" "http://www.w3.org/Graphics/SVG/1.1/DTD/svg11.dtd" >
<svg xmlns="http://www.w3.org/2000/svg" xmlns:xlink="http://www.w3.org/1999/xlink" version="1.1">
<metadata></metadata>
<defs>
<font id="abhaya_librebold" horiz-adv-x="1128" >
<font-face units-per-em="2048" ascent="1638" descent="-410" />
<missing-glyph horiz-adv-x="390" />
<glyph unicode="&#xfb01;" horiz-adv-x="1188" d="M518 52h-92v752h372v-648q0 -86 -66 -100q-22 -4 -52 -4v-52h472q0 46 -26 50q-10 2 -22 2h-84v804h-594v12q0 290 84 360q44 34 118 34q82 0 122 -84q6 -12 16 -36q36 -88 78 -112q32 -16 72 -16q82 0 108 66q6 20 6 38q0 86 -118 144q-102 48 -246 48q-318 0 -420 -218 q-40 -90 -40 -208v-28h-156v-52h156v-648q-4 -104 -152 -104v-52h512q0 46 -26 50q-10 2 -22 2z" />
<glyph unicode="&#xfb02;" horiz-adv-x="1220" d="M1184 0q0 46 -26 50q-10 2 -22 2h-104v1248h-280q-98 10 -164 10q-216 0 -318 -164q-64 -106 -64 -262v-28h-156v-52h156v-648q-4 -104 -152 -104v-52h500q0 46 -26 50q-10 2 -22 2h-80v752h204v52h-204v12q0 286 76 354q42 38 120 38q96 0 190 -36v-1064q0 -84 -64 -100 q-28 -8 -76 -8v-52h512z" />
<glyph horiz-adv-x="0" />
<glyph unicode="&#xd;" horiz-adv-x="682" />
<glyph unicode=" "  horiz-adv-x="390" />
<glyph unicode="&#x09;" horiz-adv-x="390" />
<glyph unicode="&#xa0;" horiz-adv-x="390" />
<glyph unicode="!" horiz-adv-x="496" d="M280 368q0 238 68 508q34 140 34 206q-4 136 -132 138q-134 -4 -136 -140q0 -62 44 -240q58 -238 58 -472h64zM378 118q0 78 -70 114q-30 16 -60 16q-80 0 -114 -72q-14 -28 -14 -58q0 -82 72 -116q28 -12 56 -12q78 0 114 68q16 28 16 60z" />
<glyph unicode="&#x22;" horiz-adv-x="614" d="M170 1316q-86 0 -102 -66q-2 -12 -2 -22q0 -32 40 -182q24 -96 34 -172h58q8 70 58 260q16 64 16 98q0 72 -78 82q-14 2 -24 2zM448 1316q-90 0 -102 -70q-2 -10 -2 -18q0 -30 38 -180q26 -96 34 -174h60q8 70 56 260q16 66 16 98q0 72 -80 82q-10 2 -20 2z" />
<glyph unicode="#" horiz-adv-x="1158" d="M630 -20h74l54 406h254v108h-240l30 232h236v108h-222l48 366h-74l-48 -366h-260l48 366h-74l-48 -366h-262v-108h248l-30 -232h-244v-108h230l-54 -406h74l54 406h260zM698 494h-260l30 232h260z" />
<glyph unicode="$" horiz-adv-x="1112" d="M368 986q0 152 168 174h8v-414q-168 112 -176 240zM794 252q-4 -178 -192 -206v450q168 -92 188 -204q4 -20 4 -40zM602 -182v164q258 18 366 164q58 80 58 182q0 156 -180 264q-26 18 -222 114q-12 6 -22 10v446q102 0 128 -86q6 -18 12 -56q18 -90 52 -116 q32 -22 84 -22q90 0 106 88q2 16 2 30q0 114 -166 178q-98 36 -218 42v178h-58v-178q-240 -10 -352 -136q-66 -76 -66 -178q0 -154 186 -266q24 -14 224 -112q6 -2 8 -4v-484h-16q-120 0 -152 94q-8 20 -16 62q-20 94 -56 122q-34 24 -90 24q-94 0 -122 -78q-6 -20 -6 -42 q0 -112 142 -182q124 -60 316 -60v-162h58z" />
<glyph unicode="%" horiz-adv-x="1650" d="M408 -64l864 1284l-68 44l-866 -1284zM432 1250q-186 0 -282 -140q-58 -88 -58 -204q0 -206 150 -298q80 -50 184 -50q188 0 280 142q56 86 56 202q0 216 -156 306q-78 42 -174 42zM430 600q-92 0 -118 114q-16 68 -16 188q0 246 74 292q26 14 58 14q90 0 116 -118 q14 -68 14 -182q0 -258 -82 -298q-22 -10 -46 -10zM1218 672q-186 0 -282 -140q-58 -88 -58 -204q0 -206 150 -298q80 -50 184 -50q188 0 280 142q56 86 56 202q0 216 -156 306q-78 42 -174 42zM1216 22q-92 0 -118 114q-16 68 -16 188q0 246 74 292q26 14 58 14 q90 0 116 -118q14 -68 14 -182q0 -258 -82 -298q-20 -10 -46 -10z" />
<glyph unicode="&#x26;" horiz-adv-x="1180" d="M480 1016q0 110 82 142q24 8 50 8q120 0 136 -114q2 -16 2 -32q0 -94 -100 -170q-46 -32 -100 -52q-70 138 -70 218zM540 40q-208 0 -246 218q-10 62 -10 146q2 230 96 276q134 -262 396 -566q-106 -74 -236 -74zM1054 638h-2h6l62 2q46 0 52 24q4 14 4 30h-288v-52h110 q0 -210 -84 -366q-220 264 -340 476q154 54 212 180q20 46 20 88q0 140 -126 184q-44 16 -96 16q-174 0 -252 -114q-42 -62 -42 -142q2 -94 68 -238q-240 -70 -290 -276q-12 -48 -12 -98q0 -184 142 -290q112 -82 278 -82q198 2 332 96q48 -52 70 -76h328q0 46 -32 50 q-8 2 -18 2h-46q-90 98 -158 178q102 168 102 408z" />
<glyph unicode="'" horiz-adv-x="350" d="M176 1316q-86 0 -106 -62q-4 -14 -4 -26q0 -32 42 -174q28 -100 38 -180h58q8 76 62 258q18 68 18 100q0 68 -80 82q-14 2 -28 2z" />
<glyph unicode="(" horiz-adv-x="672" d="M624 1300q-282 -76 -426 -366q-98 -202 -98 -442q0 -336 178 -564q136 -172 340 -228l20 54q-308 116 -308 742q2 632 312 750z" />
<glyph unicode=")" horiz-adv-x="674" d="M50 1300q282 -76 426 -366q98 -202 98 -442q0 -336 -178 -564q-136 -172 -340 -228l-20 54q308 116 308 742q-2 632 -312 750z" />
<glyph unicode="*" horiz-adv-x="734" d="M370 1300q-72 0 -86 -52q-2 -8 -2 -16q0 -24 38 -136q20 -54 28 -98q-24 20 -112 120q-58 62 -90 64q-48 0 -74 -62q-10 -24 -10 -44q2 -38 30 -54q22 -14 140 -34q56 -12 96 -24q-32 -12 -174 -42q-42 -10 -62 -20q-30 -20 -32 -54q0 -56 46 -90q22 -14 42 -14 q38 0 108 82q64 76 92 102q-6 -32 -52 -172q-14 -42 -14 -66q16 -58 86 -66q72 0 86 52q2 8 2 16q0 26 -40 136q-18 56 -28 100q22 -18 112 -120q58 -64 92 -66q48 0 76 62q10 24 10 44q-2 36 -32 54q-22 12 -138 34q-58 12 -100 26q34 12 176 40q42 10 62 20q32 20 34 54 q0 56 -48 90q-22 14 -42 14q-38 0 -102 -78q-66 -80 -100 -108q6 26 54 172q14 44 14 68q-16 58 -86 66z" />
<glyph unicode="+" horiz-adv-x="910" d="M840 428v80h-332v358h-104v-358h-334v-80h334v-358h104v358h332z" />
<glyph unicode="," horiz-adv-x="378" d="M326 96q0 114 -86 146q-24 8 -50 8q-80 0 -112 -72q-12 -28 -12 -56q0 -80 76 -114q14 -6 28 -8q48 -14 50 -46q-2 -60 -82 -144l42 -32q126 136 144 284q2 18 2 34z" />
<glyph unicode="-" horiz-adv-x="720" d="M66 394h588v86h-588v-86z" />
<glyph unicode="." horiz-adv-x="390" d="M324 118q0 78 -70 114q-30 16 -60 16q-80 0 -114 -72q-14 -28 -14 -58q0 -82 72 -116q28 -12 56 -12q78 0 114 68q16 28 16 60z" />
<glyph unicode="/" horiz-adv-x="856" d="M154 -310l682 1730h-154l-682 -1730h154z" />
<glyph unicode="0" horiz-adv-x="1108" d="M562 1094q-254 0 -388 -196q-98 -146 -98 -356q0 -324 196 -474q118 -88 280 -88q252 0 382 198q96 146 96 356q0 350 -212 490q-110 70 -256 70zM558 34q-150 0 -198 178q-32 116 -32 322q0 416 146 488q36 18 82 18q148 0 194 -194q28 -114 28 -302q0 -398 -122 -482 q-42 -28 -98 -28z" />
<glyph unicode="1" horiz-adv-x="868" d="M458 1074l-418 -270l36 -56l296 182v-860l-260 -18v-52h726q0 42 -42 50q-8 2 -16 2l-174 18v1004h-148z" />
<glyph unicode="2" horiz-adv-x="970" d="M178 180q0 74 148 158q34 18 110 56q222 114 302 192q100 100 100 216q0 196 -212 264q-86 28 -188 28q-208 0 -312 -104q-62 -62 -62 -148q0 -98 72 -122q18 -6 36 -6q96 0 116 92q4 22 6 70q8 106 42 136q30 28 86 28q138 0 170 -146q8 -38 8 -78q0 -206 -158 -328 q-24 -18 -170 -110q-140 -88 -182 -180q-30 -66 -30 -146v-52h798l2 364h-44l-34 -96q-26 -72 -80 -84q-24 -4 -66 -4h-458z" />
<glyph unicode="3" horiz-adv-x="1052" d="M918 1024v50h-786l-4 -354h48l36 98q28 72 88 82q24 4 68 4h320l-350 -404l48 -40q72 30 138 30q150 0 196 -162q14 -54 14 -118q-12 -310 -280 -318q-112 0 -134 98q-6 22 -10 72q-8 100 -40 128q-28 22 -74 22q-94 0 -114 -82q-4 -18 -4 -36q0 -150 178 -218 q98 -36 220 -36q272 0 408 170q80 102 80 228q0 168 -138 256q-96 60 -234 60q-70 0 -130 -14z" />
<glyph unicode="4" horiz-adv-x="1040" d="M956 -134q0 48 -26 52q-10 2 -22 2h-128v252h176v60h-176v414h-44l-26 -84q-22 -74 -80 -86q-22 -4 -54 -4h-20v-238l-452 2q354 296 466 408q214 218 216 338q0 96 -96 114q-16 4 -36 4q-86 0 -126 -78q-4 -12 -58 -168q-100 -290 -342 -520q-54 -50 -114 -98l12 -60 l530 -2v-254h-224v-54h624z" />
<glyph unicode="5" horiz-adv-x="1016" d="M948 228q0 216 -170 314q-100 58 -232 58q-162 -2 -292 -84v378q156 -18 278 -18q214 0 272 56q52 62 54 222h-52q-22 -68 -82 -84q-42 -12 -124 -12q-4 0 -414 18v-586l68 -52q108 86 222 86q164 0 220 -158q22 -64 22 -142q0 -248 -148 -312q-44 -20 -98 -20 q-104 0 -124 94q-6 22 -8 70q-8 102 -42 130q-28 24 -78 24q-94 0 -112 -84q-4 -18 -4 -34q0 -140 152 -210q90 -42 208 -42q244 0 382 136q102 104 102 252z" />
<glyph unicode="6" horiz-adv-x="1074" d="M998 376q0 196 -150 298q-102 70 -246 70q-148 -2 -266 -80q14 420 168 496q40 20 88 20q114 0 136 -88q6 -20 10 -58q10 -90 46 -114q28 -20 76 -20q90 0 112 82q6 20 6 40q0 102 -128 164q-100 48 -236 48q-302 0 -438 -264q-82 -160 -82 -378q0 -396 218 -544 q102 -68 234 -68q250 0 376 166q76 102 76 230zM334 346q0 318 204 336h20q206 -4 208 -312q-2 -334 -216 -336q-214 4 -216 312z" />
<glyph unicode="7" horiz-adv-x="946" d="M944 1020v54h-870l-4 -360h48l36 100q26 74 90 84q24 4 66 4h480q-92 -132 -248 -346q-240 -334 -294 -444q-44 -90 -44 -152q0 -94 90 -116q20 -4 42 -4q84 0 118 72q14 26 60 210q116 446 430 898z" />
<glyph unicode="8" horiz-adv-x="1086" d="M512 -20q220 0 356 120q100 94 102 224q0 158 -190 282q-36 24 -84 50q162 86 190 236q6 28 6 52q0 184 -176 256q-84 34 -186 34q-204 0 -316 -120q-76 -82 -76 -198q0 -150 186 -274q22 -14 48 -30q-202 -66 -252 -230q-14 -42 -14 -88q0 -158 144 -248 q108 -66 262 -66zM338 996q0 130 134 166q42 12 88 12q148 0 222 -100q40 -56 40 -130q0 -128 -118 -218q-32 -24 -64 -40q-180 100 -236 158q-66 70 -66 152zM178 300q0 138 128 220q58 36 134 54q182 -102 236 -150q88 -80 90 -174q0 -144 -152 -194q-58 -18 -128 -18 q-152 0 -244 96q-64 70 -64 166z" />
<glyph unicode="9" horiz-adv-x="1078" d="M984 510q0 356 -206 504q-110 80 -262 80q-262 0 -376 -166q-64 -94 -64 -214q0 -220 186 -310q96 -48 226 -48q144 2 254 78q-8 -386 -122 -490q-56 -50 -136 -50q-116 0 -140 96q-6 18 -10 60q-12 92 -46 118q-28 20 -74 20q-92 0 -116 -78q-4 -18 -4 -36 q0 -112 136 -182q100 -52 228 -52q268 0 412 216q114 174 114 454zM308 744q2 294 212 296q218 -4 220 -318q0 -284 -200 -300q-12 -2 -24 -2q-206 4 -208 324z" />
<glyph unicode=":" horiz-adv-x="406" d="M330 356q-2 46 -28 82q28 32 28 78q0 78 -70 114q-28 14 -58 14q-78 0 -112 -70q-14 -28 -14 -58q2 -46 26 -78q-26 -40 -26 -82q0 -80 70 -114q28 -12 56 -12q78 0 114 68q14 28 14 58z" />
<glyph unicode=";" horiz-adv-x="378" d="M320 592q0 78 -70 114q-28 14 -58 14q-78 0 -112 -70q-14 -28 -14 -58q0 -82 72 -116q26 -12 54 -12q78 0 114 70q14 26 14 58zM326 124q0 114 -84 146q-26 10 -52 10q-78 0 -112 -72q-12 -28 -12 -58q0 -80 76 -114q14 -6 28 -8q48 -14 50 -46q-2 -60 -82 -144l42 -30 q124 130 144 278q2 20 2 38z" />
<glyph unicode="&#x3c;" horiz-adv-x="896" d="M792 138l36 78l-618 256l618 258l-30 72l-728 -300v-64z" />
<glyph unicode="=" horiz-adv-x="910" d="M840 538v80h-770v-80h770zM840 318v80h-770v-80h770z" />
<glyph unicode="&#x3e;" horiz-adv-x="896" d="M104 802l-34 -78l618 -256l-618 -258l30 -72l728 300v64z" />
<glyph unicode="?" horiz-adv-x="928" d="M448 368q0 150 128 262q22 20 70 56q112 86 146 146t34 132q0 172 -198 232q-78 24 -174 24q-190 0 -290 -88q-56 -52 -58 -118q0 -90 84 -106q16 -2 30 -2q84 0 102 78q4 16 8 50q8 90 44 114q28 20 74 20q138 -12 144 -168q0 -156 -80 -278q-72 -110 -84 -132 q-44 -94 -44 -222h64zM552 118q0 78 -70 114q-30 16 -60 16q-80 0 -114 -72q-14 -28 -14 -58q0 -82 72 -116q28 -12 56 -12q78 0 114 68q16 28 16 60z" />
<glyph unicode="@" horiz-adv-x="1792" d="M1358 -236l-24 52q-174 -84 -354 -84q-280 0 -468 192q-192 200 -192 510q0 380 226 558q146 116 358 116q280 0 446 -200q152 -186 152 -488q0 -222 -96 -314q-38 -36 -82 -36q-80 4 -82 112v370q0 246 -240 284q-40 6 -84 6q-236 0 -300 -104q-16 -28 -16 -58 q0 -68 64 -82q14 -4 28 -4q74 0 98 70q4 10 8 32q20 72 56 90q20 8 46 8q98 0 118 -108q6 -34 6 -82v-116q-468 -16 -478 -250q0 -168 156 -206q40 -10 84 -10q150 0 224 112q14 24 24 48q28 -160 260 -162q208 0 312 172q70 114 70 268q0 382 -278 572q-200 136 -480 136 q-390 0 -616 -236q-202 -214 -202 -548q0 -330 252 -538q232 -186 558 -188q238 0 446 106zM872 106q-98 4 -100 156q0 130 146 162q46 10 108 12v-164q-38 -142 -130 -164q-12 -2 -24 -2z" />
<glyph unicode="A" horiz-adv-x="1272" d="M1272 0q0 46 -28 52q-8 2 -22 2h-62l-468 1146h-124l-440 -1146h-128v-54h364q0 46 -28 52q-10 2 -22 2h-106l146 384h404l150 -384h-138v-54h502zM734 498h-358l178 468z" />
<glyph unicode="B" horiz-adv-x="1214" d="M1066 930q0 170 -176 236q-92 34 -216 34h-622v-54h160v-1092h-160v-54h648q268 0 388 162q62 84 62 186q0 200 -202 274q-54 20 -118 30q168 56 220 192q16 44 16 86zM582 1146q226 -4 228 -232q0 -164 -118 -216q-44 -20 -100 -20h-134v468h124zM638 622 q168 0 224 -150q20 -52 20 -116q0 -206 -136 -276q-54 -26 -124 -26h-164v568h180z" />
<glyph unicode="C" horiz-adv-x="1216" d="M1092 82q-2 -78 32 -88q14 -4 36 -4v388h-60q-84 -302 -320 -336q-34 -4 -68 -4q-360 4 -362 568q0 438 244 534q60 22 130 22q226 0 326 -222q22 -52 40 -116h64l-6 386q-50 0 -60 -34q-4 -20 -4 -58q-166 102 -384 102q-330 0 -504 -234q-124 -168 -124 -384 q0 -260 166 -436q176 -186 462 -186q206 2 392 102z" />
<glyph unicode="D" horiz-adv-x="1346" d="M52 1200v-54h160v-1092h-160v-54h582q274 0 452 168q176 166 176 430q0 336 -250 498q-162 104 -380 104h-580zM634 1146q244 0 318 -236q36 -120 36 -304q0 -458 -234 -534q-54 -18 -120 -18h-176v1092h176z" />
<glyph unicode="E" horiz-adv-x="1130" d="M1036 824l-8 376h-976v-54h160v-1092h-160v-54h976l8 376h-52l-40 -124q-52 -156 -156 -188q-34 -10 -74 -10h-256v534h394v60h-394v498h256q154 0 218 -160q8 -18 14 -38l38 -124h52z" />
<glyph unicode="F" horiz-adv-x="1050" d="M696 0v54h-238v534h394v60h-394v498h256q168 0 230 -194q2 -2 2 -4l38 -132h52l-8 384h-976v-54h160v-1092h-160v-54h644z" />
<glyph unicode="G" horiz-adv-x="1390" d="M792 548v-54h174v-358q-96 -94 -246 -94q-272 0 -338 300q-24 108 -24 256q2 560 372 562q222 0 318 -198q34 -74 58 -176h58l-8 412l-184 -38q-134 60 -282 60q-262 0 -434 -164q-174 -170 -174 -450q0 -346 248 -516q160 -108 364 -108q162 0 294 66l218 -48v494h136 v54h-550z" />
<glyph unicode="H" horiz-adv-x="1458" d="M618 0q-12 50 -54 54h-106v534h542v-534h-160v-54h564q-16 50 -52 54h-106v1092h158v54h-564v-54h160v-498h-542v498h160v54h-566v-54h160v-1092h-160v-54h566z" />
<glyph unicode="I" horiz-adv-x="670" d="M618 0q-12 50 -54 54h-106v1092h160v54h-566v-54h160v-1092h-160v-54h566z" />
<glyph unicode="J" horiz-adv-x="800" d="M758 1146v54h-578v-54h180v-780q0 -278 -54 -332q-22 -22 -56 -22q-54 0 -68 66q-4 10 -8 30q-16 86 -54 110q-28 16 -68 16q-72 0 -96 -66q-6 -20 -6 -38q0 -86 104 -136q70 -32 170 -32q230 0 326 172q54 100 54 246v766h154z" />
<glyph unicode="K" horiz-adv-x="1296" d="M618 0q-12 50 -54 54h-106v476l78 70l410 -602l350 2q-12 50 -54 54h-30l-500 708l322 294q82 78 124 86q16 4 30 4q50 16 54 54h-368v-54h160l-576 -524v524h160v54h-566v-54h160v-1092h-160v-54h566z" />
<glyph unicode="L" horiz-adv-x="1014" d="M1000 0l8 424h-52l-50 -172q-42 -140 -122 -178q-42 -20 -98 -20h-228v1092h170v54h-576v-54h160v-1092h-160v-54h948z" />
<glyph unicode="M" horiz-adv-x="1612" d="M1578 1200h-394l-382 -900l-434 900h-336v-54h160v-1092h-160v-54h404q-12 50 -54 54h-106v786l430 -856h38l440 1024v-954h-160v-54h554q-12 50 -54 54h-106v1092h160v54z" />
<glyph unicode="N" horiz-adv-x="1332" d="M912 1146h164v-812l-724 866h-318v-54h160v-1092h-160v-54h412q-12 50 -54 54h-116v862l776 -926l106 20v1136h160v54h-406v-54z" />
<glyph unicode="O" horiz-adv-x="1408" d="M710 1220q-258 0 -438 -164q-190 -174 -190 -450q0 -318 226 -494q170 -132 396 -132q256 0 434 166q188 176 188 452q0 328 -232 500q-164 122 -384 122zM710 38q-248 0 -318 262q-32 122 -32 298q0 534 306 562q20 2 38 2q268 0 326 -326q18 -100 18 -230 q0 -492 -248 -558q-42 -10 -90 -10z" />
<glyph unicode="P" horiz-adv-x="1124" d="M606 1146q196 0 220 -222q2 -26 2 -54q0 -266 -214 -282h-24h-132v558h148zM658 0q-12 50 -54 54h-146v474h168q338 0 434 204q32 68 32 150q0 190 -168 272q-94 46 -228 46h-644v-54h160v-1092h-160v-54h606z" />
<glyph unicode="Q" horiz-adv-x="1416" d="M714 1220q-260 0 -440 -166q-188 -176 -188 -450q0 -312 224 -490q170 -134 398 -134q72 0 148 16q104 -158 138 -196q96 -106 200 -108q168 4 270 246l-46 26q-108 -104 -188 -108q-92 0 -208 132q-16 20 -42 50q226 102 310 330q40 110 40 232q0 326 -232 498 q-166 122 -384 122zM682 248q-108 -2 -198 -128q-124 126 -124 478q0 508 280 558q34 6 70 6q270 0 328 -326q18 -100 18 -228q-2 -378 -136 -500q-132 136 -238 140zM712 38q-112 2 -184 46q72 76 138 78q74 -2 152 -110q-44 -14 -106 -14z" />
<glyph unicode="R" horiz-adv-x="1226" d="M618 0v54h-160v494h128l304 -550l336 2q0 44 -26 50q-12 2 -24 2h-42l-314 518q204 54 260 216q16 50 16 100q0 150 -132 240q-110 74 -268 74h-644v-54h160v-1092h-160v-54h566zM596 1146q162 0 218 -150q20 -54 20 -116q0 -160 -102 -234q-54 -38 -124 -38h-150v538 h138z" />
<glyph unicode="S" horiz-adv-x="1102" d="M1014 328q0 170 -188 286q-28 16 -216 108q-172 86 -214 168q-22 44 -22 90q0 120 116 164q46 18 98 18q164 0 248 -118q56 -80 56 -190h72v358q-56 0 -64 -38q-2 -14 -2 -32q-158 78 -340 78q-232 0 -354 -124q-80 -82 -80 -194q0 -168 188 -282q30 -16 220 -110 q176 -86 218 -170q22 -42 22 -88q0 -140 -130 -192q-52 -22 -116 -22q-238 0 -314 234q-20 66 -26 144h-72v-420q50 0 60 30q4 18 4 56q156 -102 366 -102q246 0 378 128q92 90 92 220z" />
<glyph unicode="T" horiz-adv-x="1124" d="M872 0q-16 50 -52 54h-136v1092h60q146 0 208 -148q10 -24 18 -50l52 -166h58l-8 418h-1020l-10 -418h60l52 166q48 156 154 188q32 10 72 10h58v-1092h-190v-54h624z" />
<glyph unicode="U" horiz-adv-x="1284" d="M20 1146h160v-702q4 -462 494 -464q328 0 410 254q30 98 30 234v678h160v54h-392v-54h160v-690q-2 -416 -326 -418q-226 0 -276 238q-16 78 -16 182v688h160v54h-564v-54z" />
<glyph unicode="V" horiz-adv-x="1176" d="M660 -10l416 1156h100v54h-338v-54h160l-314 -878l-346 878h158v54h-512v-54h108l390 -998q48 -122 76 -142q22 -16 66 -16h36z" />
<glyph unicode="W" horiz-adv-x="1746" d="M1260 0l386 1146h100v54h-328v-54h160l-292 -882l-314 884l160 -2v54h-424l146 -390l-200 -558l-322 894h160v54h-508v-54h106l378 -1002q44 -120 80 -138q18 -10 46 -10h32l262 722l216 -574q44 -116 74 -134q16 -10 48 -10h34z" />
<glyph unicode="X" horiz-adv-x="1250" d="M388 0v54h-160l330 462l304 -462h-144v-54h532q-12 50 -54 54h-62l-416 620l298 416q38 52 86 56h22q48 16 52 54h-352v-54h160l-300 -420l-282 420h144v54h-522v-54h118l378 -574l-330 -462q-44 -56 -124 -56q-48 -16 -52 -54h374z" />
<glyph unicode="Y" horiz-adv-x="1142" d="M872 0q-12 50 -54 54h-114v460l282 576q38 54 102 56q50 12 54 54h-354v-54h160l-280 -564l-302 564h152v54h-524v-54h100l366 -648v-444h-168v-54h580z" />
<glyph unicode="Z" horiz-adv-x="1102" d="M1046 0l4 414h-56l-54 -192q-48 -166 -196 -168h-426l720 1102v44h-900l-16 -362h54l82 180q62 126 162 128l362 2l-738 -1106v-42h1002z" />
<glyph unicode="[" horiz-adv-x="736" d="M688 -272h-536v1562h536v-58h-312v-1442l312 -4v-58z" />
<glyph unicode="\" horiz-adv-x="880" d="M676 -310l-682 1730h154l682 -1730h-154z" />
<glyph unicode="]" horiz-adv-x="762" d="M74 -272h536v1562h-536v-58h312v-1442l-312 -4v-58z" />
<glyph unicode="^" horiz-adv-x="1054" d="M146 668l66 -42l316 512l316 -512l64 42l-358 580h-44z" />
<glyph unicode="_" horiz-adv-x="1000" d="M20 -144h960v94h-960v-94z" />
<glyph unicode="`" horiz-adv-x="1000" d="M742 1004q-76 70 -184 210q-38 52 -64 72q-30 24 -60 24q-62 0 -94 -62q-12 -26 -12 -50q2 -46 38 -74q28 -22 184 -84q98 -40 162 -76z" />
<glyph unicode="a" horiz-adv-x="978" d="M778 -20q142 0 176 112q10 40 14 96l-52 2q-12 -140 -72 -142q-46 4 -46 100v420q0 258 -244 306q-50 10 -106 10q-252 0 -326 -112q-22 -32 -22 -68q0 -68 64 -88q18 -6 36 -6q72 0 100 74q4 10 12 34q24 82 62 102q26 12 58 12q120 0 140 -142q4 -32 4 -70v-128 q-524 -8 -526 -274q0 -172 150 -222q48 -16 104 -16q158 0 246 112q24 34 38 70q32 -180 190 -182zM396 64q-112 0 -120 160v20q0 136 136 172q64 18 164 20v-182q-34 -136 -128 -178q-28 -12 -52 -12z" />
<glyph unicode="b" horiz-adv-x="1108" d="M630 -20q188 0 306 142q108 130 108 328q0 248 -148 366q-86 68 -198 68q-212 0 -310 -204l-4 -8v628h-346v-52h124v-1086q0 -88 -60 -104q-26 -6 -64 -6v-52h288l18 138q98 -156 286 -158zM612 792q180 0 192 -320v-44q0 -332 -154 -386q-28 -10 -56 -10 q-138 0 -188 170q-24 80 -24 188q0 258 116 358q52 44 114 44z" />
<glyph unicode="c" horiz-adv-x="896" d="M66 426q0 -274 206 -388q106 -58 244 -58q208 0 318 132q34 40 52 88l-52 14q-62 -132 -208 -166q-38 -10 -80 -10q-236 4 -238 388q0 366 162 404q24 4 46 4q94 0 116 -82q4 -18 8 -54q14 -88 48 -112q26 -16 66 -18q90 0 112 70q4 16 4 30q0 90 -110 156 q-102 60 -244 60q-224 0 -350 -156q-100 -122 -100 -302z" />
<glyph unicode="d" d="M756 0h336q0 44 -24 50q-10 2 -26 2h-94v1248h-406v-52h184v-458q-102 94 -250 94q-198 0 -316 -160q-94 -130 -94 -314q0 -248 162 -366q90 -64 200 -64q196 0 288 180q10 18 16 34zM308 434q0 288 132 366q42 24 88 24q138 0 184 -182q18 -74 18 -170q0 -280 -124 -372 q-44 -32 -98 -32q-148 0 -188 216q-12 68 -12 150z" />
<glyph unicode="e" horiz-adv-x="944" d="M504 832q124 0 148 -146q6 -32 6 -66q0 -94 -68 -118q-44 -12 -128 -10l-154 6q8 284 150 328q24 6 46 6zM870 202l-48 16q-58 -126 -184 -166q-42 -14 -86 -14q-234 0 -244 398v4l202 -4q300 -6 360 86q20 32 20 76q0 158 -160 238q-100 48 -226 48q-230 0 -352 -166 q-86 -118 -86 -286q0 -274 202 -392q108 -60 242 -60q228 0 330 162q18 30 30 60z" />
<glyph unicode="f" horiz-adv-x="666" d="M568 52h-142v752h228v52h-228v12q0 312 62 370q26 20 60 20q52 0 88 -76q40 -84 56 -100q26 -28 62 -28q78 0 98 62q4 14 4 28q0 84 -102 134q-70 32 -166 32q-224 0 -322 -170q-60 -104 -60 -256v-28h-156v-52h156v-644q0 -90 -90 -104q-26 -4 -62 -4v-52h562 q0 46 -30 50q-8 2 -18 2z" />
<glyph unicode="g" horiz-adv-x="996" d="M314 552q0 202 64 252q34 28 94 28q116 0 144 -114q14 -56 14 -162q0 -206 -68 -258q-36 -26 -92 -26q-116 0 -144 122q-12 56 -12 158zM478 884q-216 0 -324 -138q-64 -82 -64 -190q0 -146 142 -252q22 -16 44 -30q-116 2 -160 -104q-14 -36 -14 -74q2 -98 78 -156 q-56 -62 -56 -128q0 -108 138 -162q92 -36 222 -36q320 0 418 150q30 50 30 104q0 184 -202 216q-32 6 -66 6l-398 8q-62 2 -72 52q-2 8 -2 14q0 46 54 56q12 2 22 2l196 -2h6q208 0 316 140q68 90 68 200q-2 146 -110 238q28 64 82 66q26 0 64 -34q28 -22 50 -22 q56 0 68 54q2 10 2 18q0 70 -68 98q-28 10 -60 10q-100 0 -158 -108q-14 -26 -22 -52q-94 56 -224 56zM484 -334q-226 0 -280 106q-12 24 -12 50q2 46 36 92q40 -14 78 -14l374 -4q128 -2 148 -46q8 -16 8 -36q0 -92 -174 -130q-82 -18 -178 -18z" />
<glyph unicode="h" horiz-adv-x="1130" d="M462 52h-66v464q0 178 114 244q40 22 80 22q116 0 148 -124q8 -34 8 -76v-422q0 -82 -30 -98q-22 -10 -68 -10v-52h444q0 44 -26 50q-12 2 -24 2h-76v506q0 238 -162 306q-50 20 -108 20q-162 0 -258 -120q-26 -36 -42 -74v610h-348v-52h128v-1088q0 -90 -70 -104 q-24 -4 -58 -4v-52h464q0 44 -26 50q-12 2 -24 2z" />
<glyph unicode="i" horiz-adv-x="582" d="M486 52h-82v804h-350v-50h130v-646q0 -86 -66 -102q-24 -6 -64 -6v-52h480q0 46 -30 50q-8 2 -18 2zM424 1128q0 82 -74 122q-30 16 -62 16q-82 0 -120 -74q-16 -32 -16 -64q0 -84 74 -120q30 -14 62 -14q82 0 120 70q16 30 16 64z" />
<glyph unicode="j" horiz-adv-x="560" d="M444 1128q0 82 -74 122q-30 16 -62 16q-82 0 -120 -74q-16 -32 -16 -64q0 -84 74 -120q30 -14 62 -14q82 0 120 70q16 30 16 64zM72 856v-50h136v-702q0 -68 4 -198q4 -84 4 -112q-2 -126 -62 -128q-40 0 -54 58q-20 76 -30 92q-26 32 -74 32q-70 0 -86 -60 q-4 -14 -4 -26q0 -84 94 -124q54 -24 124 -24q208 0 278 212q28 92 28 214v816h-358z" />
<glyph unicode="k" horiz-adv-x="1036" d="M512 52h-100v304l78 74l256 -432l310 2q0 46 -26 50q-10 2 -22 2h-44l-320 524l160 152q68 66 104 74q16 4 36 4q46 0 50 30q2 10 2 20h-340v-50h148l-392 -370v864h-372v-52h152v-1088q0 -90 -90 -104q-26 -4 -62 -4v-52h520q0 46 -30 50q-8 2 -18 2z" />
<glyph unicode="l" horiz-adv-x="610" d="M518 52h-102v1248h-374v-52h154v-1084q0 -86 -60 -104q-30 -8 -94 -8v-52h526q0 44 -26 50q-12 2 -24 2z" />
<glyph unicode="m" horiz-adv-x="1622" d="M448 52h-54l2 494q14 164 116 222q32 18 64 18q82 0 116 -98q14 -44 14 -100v-428q0 -82 -38 -98q-22 -10 -66 -10v-52h426q0 44 -26 50q-12 2 -24 2h-52v506v26q22 148 118 194q26 12 52 12q92 0 128 -102q14 -46 14 -100v-428q0 -82 -38 -98q-22 -10 -66 -10v-52h450 q0 44 -26 50q-12 2 -24 2h-76v514q0 198 -132 280q-60 38 -130 38q-188 0 -282 -182q-4 -8 -6 -14q-44 148 -168 186q-32 10 -66 10q-176 0 -266 -156l-16 -32l-10 160h-336v-50h128v-646q0 -88 -66 -102q-26 -6 -62 -6v-52h450q0 46 -30 50q-8 2 -18 2z" />
<glyph unicode="n" d="M456 52h-62l2 494q14 160 120 220q38 20 76 20q112 0 142 -118q10 -36 10 -80v-428q0 -84 -46 -100q-22 -8 -64 -8v-52h458q0 44 -26 50q-12 2 -24 2h-78v506q0 236 -164 304q-52 22 -112 22q-144 0 -244 -114q-32 -38 -52 -80l-10 166h-336v-50h128v-646q0 -88 -66 -102 q-26 -6 -62 -6v-52h460q0 44 -26 50q-12 2 -24 2z" />
<glyph unicode="o" horiz-adv-x="1036" d="M308 432q0 304 108 374q44 26 102 26q152 0 192 -172q20 -84 20 -220q0 -322 -122 -388q-40 -20 -90 -20q-150 0 -190 172q-20 86 -20 228zM526 884q-228 0 -360 -156q-100 -120 -100 -288q0 -232 164 -364q120 -96 282 -96q222 0 354 160q104 126 104 300 q0 234 -168 358q-116 86 -276 86z" />
<glyph unicode="p" horiz-adv-x="1114" d="M390 -328v404q84 -94 244 -96q190 0 310 146q106 130 106 328q0 244 -142 360q-86 70 -198 70q-166 0 -266 -124q-38 -48 -58 -104l-10 200h-332v-50h126v-1026q0 -84 -56 -100q-26 -8 -70 -8v-52h510q0 44 -26 50q-12 2 -24 2h-114zM618 792q190 -4 192 -364 q0 -342 -162 -390q-22 -6 -48 -6q-122 0 -178 142q-34 90 -34 216q0 254 116 358q52 44 114 44z" />
<glyph unicode="q" horiz-adv-x="1124" d="M64 408q0 -252 164 -368q86 -60 194 -60q166 0 266 134q22 32 38 66l-2 -400q0 -84 -58 -100q-28 -8 -80 -8v-52h496q0 46 -26 50q-12 2 -24 2h-86v1134h134v50h-336l-8 -68q-100 96 -258 96q-190 0 -308 -144q-106 -130 -106 -332zM728 472q0 -292 -130 -378 q-44 -26 -92 -26q-152 0 -190 222q-12 66 -12 144q0 284 130 366q42 24 90 24q172 0 200 -256q4 -46 4 -96z" />
<glyph unicode="r" horiz-adv-x="826" d="M542 52h-146v434q14 192 108 258q22 14 38 14q26 0 52 -46q34 -64 72 -76q18 -6 38 -6q72 0 102 70q10 22 10 46q0 96 -94 120q-24 6 -48 6q-122 0 -218 -100q-42 -46 -66 -104l-12 188h-330v-50h126v-646q0 -86 -60 -102q-26 -6 -66 -6v-52h542q0 46 -30 50q-8 2 -18 2z " />
<glyph unicode="s" horiz-adv-x="826" d="M388 36q134 0 166 90q6 20 6 40q0 96 -126 162q-28 14 -88 40q-154 68 -206 124q-54 64 -54 148q0 158 172 218q76 26 170 26q146 0 240 -56q0 60 32 66q10 2 20 2v-250h-60q-8 182 -200 184q-134 0 -166 -84q-8 -22 -8 -44q0 -84 120 -146q26 -12 84 -38 q158 -68 210 -126q60 -68 60 -160q0 -170 -176 -228q-72 -24 -160 -24q-168 0 -282 66q0 -52 -26 -60q-12 -2 -28 -2v304h64q4 -250 236 -252z" />
<glyph unicode="t" horiz-adv-x="698" d="M34 798h138v-520q18 -290 270 -300q158 0 214 126q20 44 32 106l-54 8q-44 -178 -142 -180q-84 0 -98 114q-2 20 -2 40v606h280v52h-280v232l-220 -42v-190h-138v-52z" />
<glyph unicode="u" d="M1034 52h-78v804h-340v-50h120l-2 -482q-10 -160 -116 -224q-40 -22 -80 -22q-132 0 -152 150q-4 26 -4 52v576h-348v-50h128v-494q2 -330 286 -332q162 0 258 136q20 30 34 60l10 -176h332q0 46 -26 50q-10 2 -22 2z" />
<glyph unicode="v" horiz-adv-x="942" d="M442 806v50h-438v-50h82l250 -672q42 -112 76 -132q22 -12 62 -12h58l288 754q20 54 52 60q12 2 24 2q34 0 38 12t4 38h-318v-50h158l-240 -628l-232 628h136z" />
<glyph unicode="w" horiz-adv-x="1404" d="M452 806v50h-442v-50h86l238 -672q40 -116 84 -136q20 -8 52 -8h58l180 560l146 -416q38 -114 68 -132q22 -12 60 -12h56l248 752q18 56 54 62q10 2 20 2q38 0 42 28q2 10 2 22h-288v-50h128l-196 -618l-210 618h126v50h-362l76 -218l-142 -452l-214 620h130z" />
<glyph unicode="x" horiz-adv-x="934" d="M8 0h304v52h-144l242 304l204 -304h-114v-52h434q-16 48 -50 52h-40l-286 428l200 266q40 54 102 62q30 2 36 22q2 12 2 26h-298v-50h134l-210 -278l-186 278h118v50h-444v-50h94l272 -402l-234 -294q-42 -50 -102 -60q-28 -2 -32 -24q-2 -12 -2 -26z" />
<glyph unicode="y" horiz-adv-x="976" d="M242 -320q-34 0 -54 52q-26 68 -48 84t-54 16q-68 0 -86 -58q-4 -14 -4 -26q0 -70 84 -110q52 -24 114 -24q164 0 278 194q44 72 84 174l298 762q22 54 50 60q8 2 18 2q42 0 48 26q2 10 2 24h-308v-50h150l-232 -584l-250 584h126v50h-446v-50h90l380 -834 q-102 -248 -196 -284q-22 -8 -44 -8z" />
<glyph unicode="z" horiz-adv-x="840" d="M272 54l522 764v42h-706l-16 -286h44l62 136q46 94 130 96h266l-544 -762v-44h758l4 328h-44l-36 -142q-36 -130 -154 -132l6 -2z" />
<glyph unicode="{" horiz-adv-x="800" d="M516 296v-302q0 -130 24 -162q32 -42 176 -46h44v-58q-262 0 -342 32q-104 42 -118 186q-2 30 -2 62v298q0 110 -52 146q-34 22 -100 36v42q112 24 138 82q14 36 14 100v298q0 180 94 234q74 44 312 46h56v-58q-174 0 -212 -36q-32 -30 -32 -144v-28v-302 q0 -126 -102 -182q-18 -12 -50 -26v-10q94 -44 124 -90q28 -48 28 -118z" />
<glyph unicode="|" horiz-adv-x="530" d="M192 -272v1572h146v-1572h-146z" />
<glyph unicode="}" horiz-adv-x="794" d="M284 718v302q0 130 -24 162q-32 42 -176 46h-44v58q262 0 342 -32q104 -42 118 -186q2 -30 2 -62v-298q0 -110 52 -146q34 -22 100 -36v-42q-112 -24 -138 -82q-14 -36 -14 -100v-298q0 -180 -94 -234q-74 -44 -312 -46h-56v58q174 0 212 36q32 30 32 144v28v302 q0 126 102 182q18 12 50 26v10q-94 44 -124 90q-28 48 -28 118z" />
<glyph unicode="~" horiz-adv-x="972" d="M318 638q84 0 218 -78q114 -64 164 -64q108 4 154 144l52 -12q-26 -182 -144 -248q-46 -24 -98 -24q-82 0 -220 74q-116 64 -170 64q-112 -4 -156 -142l-52 14q30 184 154 248q46 24 98 24z" />
<glyph unicode="&#xa1;" horiz-adv-x="556" d="M202 506q0 -238 -68 -508q-34 -140 -34 -206q4 -136 132 -138q134 4 136 140q0 62 -44 240q-58 238 -58 472h-64zM104 756q0 -78 70 -114q30 -16 60 -16q80 0 114 72q14 28 14 58q0 82 -72 116q-28 12 -56 12q-78 0 -114 -68q-16 -28 -16 -60z" />
<glyph unicode="&#xa2;" horiz-adv-x="930" d="M64 544q0 -274 206 -388q90 -50 202 -58v-138h58v136q212 6 312 144q26 36 42 78l-50 14q-58 -122 -190 -164q-50 -16 -102 -16h-12v798q90 0 108 -82q4 -16 6 -52q10 -90 44 -114q24 -16 62 -18q94 0 114 74q4 14 4 26q0 92 -114 158q-94 54 -224 58v140h-58v-142 q-224 -18 -334 -186q-74 -114 -74 -268zM298 542q0 354 154 400q12 2 20 4v-786q-174 52 -174 382z" />
<glyph unicode="&#xa3;" horiz-adv-x="1140" d="M1096 340h-42q-48 -146 -276 -146q-122 0 -322 38q24 80 24 186q0 58 -8 176h308v58h-312q-12 144 -12 206q0 262 124 298q26 8 54 8q106 0 132 -92q6 -20 14 -62q16 -96 52 -122q30 -20 74 -20q90 0 118 72q8 22 8 44q0 130 -166 196q-104 40 -240 40q-238 0 -360 -144 q-80 -94 -80 -224q0 -90 34 -200h-122v-58h140q12 -32 34 -96q64 -170 74 -246q-64 10 -102 10q-114 0 -148 -88q-10 -24 -10 -48q0 -84 76 -114q30 -12 62 -12q124 2 196 136q20 -12 58 -40q148 -108 242 -128q40 -10 80 -10q228 0 282 238q14 64 14 144zM222 56 q-60 0 -70 52q-2 10 -2 16q0 60 58 78q16 4 32 4q56 0 108 -28q-12 -86 -86 -114q-20 -8 -40 -8z" />
<glyph unicode="&#xa4;" horiz-adv-x="1210" d="M594 222q-160 0 -248 122q-66 90 -66 218q0 206 154 294q72 42 158 42q156 0 246 -120q66 -90 66 -218q0 -210 -154 -298q-72 -40 -156 -40zM590 152q154 2 264 96l172 -174l50 50l-172 176q84 108 84 264q-2 148 -78 252l172 170l-52 52l-168 -168q-112 98 -266 98 q-154 -2 -264 -96l-172 168l-50 -50l172 -170q-86 -106 -86 -262q2 -158 88 -266l-170 -170l52 -50l170 170q106 -90 254 -90z" />
<glyph unicode="&#xa5;" horiz-adv-x="1144" d="M858 0q0 48 -26 52q-10 2 -22 2h-108l2 386h260v60h-258v96h258v60h-236l242 434q22 40 52 50q26 6 70 6q34 16 38 54h-358v-54h160l-262 -468l-274 468h134v54h-504v-54h96l306 -490h-226v-60h260v-96h-260v-60h258l-2 -386h-154v-54h554z" />
<glyph unicode="&#xa6;" horiz-adv-x="530" d="M338 630v670h-146v-670h146zM338 -272v670h-146v-670h146z" />
<glyph unicode="&#xa7;" horiz-adv-x="940" d="M290 634q2 74 58 116q24 -12 74 -34q162 -70 202 -118q30 -36 30 -76q-2 -78 -64 -120q-24 12 -70 32q-160 76 -200 124q-30 36 -30 76zM862 588q0 140 -174 234q-38 20 -122 56q-156 68 -196 114q-30 36 -30 78q0 78 80 108q28 10 58 10q96 0 120 -78q4 -12 10 -36 q18 -70 50 -86q22 -10 48 -10q74 14 82 88q0 94 -136 146q-80 30 -170 30q-214 0 -306 -112q-46 -56 -46 -132q2 -122 140 -208q-156 -46 -184 -174q-4 -22 -4 -44q0 -142 178 -242q38 -22 118 -62q152 -72 188 -118q24 -30 24 -64q0 -84 -82 -112q-26 -8 -54 -8 q-90 0 -116 78q-4 14 -10 40q-16 74 -50 92q-22 12 -52 12q-80 0 -92 -70q-2 -10 -2 -18q0 -110 148 -162q78 -26 170 -26q190 0 292 98q64 64 64 148q-2 118 -146 206q166 46 196 174q6 24 6 50z" />
<glyph unicode="&#xa8;" horiz-adv-x="1000" d="M438 1140q0 74 -66 110q-28 14 -56 14q-78 0 -114 -70q-12 -26 -12 -54q0 -78 70 -110q28 -12 56 -12q74 0 108 66q14 26 14 56zM810 1140q0 76 -68 110q-28 14 -58 14q-72 0 -108 -66q-14 -28 -14 -58q0 -78 70 -110q26 -12 52 -12q82 0 114 70q12 26 12 52z" />
<glyph unicode="&#xa9;" horiz-adv-x="1282" d="M1212 550q0 252 -174 416q-160 152 -396 152q-270 0 -436 -190q-136 -158 -136 -378q0 -254 176 -418q162 -152 396 -152q266 0 430 188q140 160 140 382zM132 550q0 242 166 390q140 122 344 122q248 0 394 -182q112 -140 112 -330q0 -236 -162 -386 q-142 -128 -344 -128q-250 0 -396 180q-114 142 -114 334zM652 910q-186 0 -288 -132q-72 -96 -72 -230q0 -200 152 -296q90 -56 202 -56q182 0 270 136q8 16 16 30l-46 20q-66 -128 -202 -130q-128 0 -164 190q-10 58 -10 124q0 218 88 278q24 16 52 16q62 0 74 -66 q2 -10 4 -32q12 -84 48 -104q26 -16 66 -16q82 0 92 66q2 8 2 16q0 100 -124 154q-74 32 -160 32z" />
<glyph unicode="&#xaa;" horiz-adv-x="616" d="M568 486v72h-532v-72h532zM588 782h-38q-6 -72 -40 -74q-26 4 -26 58v240q-6 190 -222 194q-166 0 -206 -78q-8 -18 -8 -34q0 -52 52 -62q8 -2 16 -2q62 0 78 58q16 54 22 62q18 18 44 18q70 0 76 -104v-26v-68q-286 -2 -312 -134q-4 -16 -4 -32q0 -116 110 -140 q24 -6 48 -6q116 0 162 96q0 4 2 6q18 -84 102 -100q14 -2 28 -2q98 0 114 100q2 14 2 30zM236 722q-56 4 -58 90q0 86 90 104q30 6 68 8v-98q-34 -98 -100 -104z" />
<glyph unicode="&#xab;" horiz-adv-x="838" d="M434 756l-40 34q-42 -46 -252 -240q-56 -50 -76 -74q-30 -34 -30 -68q2 -36 30 -68q16 -20 218 -206q66 -60 110 -104l38 34q-20 34 -164 318l-14 28l40 80q90 182 140 266zM802 756l-40 34q-44 -48 -252 -238q-56 -52 -78 -76q-28 -36 -28 -68q2 -38 28 -68 q14 -14 218 -204q68 -62 112 -106l38 34q-22 38 -154 296q-14 30 -26 50q16 30 54 106q84 164 128 240z" />
<glyph unicode="&#xac;" horiz-adv-x="968" d="M794 222h104v452h-828v-80h724v-372z" />
<glyph unicode="&#xad;" horiz-adv-x="720" d="M66 394h588v86h-588v-86z" />
<glyph unicode="&#xae;" horiz-adv-x="790" d="M740 946q0 174 -134 274q-96 70 -218 70q-180 0 -284 -136q-68 -92 -68 -208q0 -174 134 -274q96 -70 218 -70q180 0 284 136q68 90 68 208zM90 946q0 158 122 246q78 54 176 54q160 -2 246 -126q52 -78 52 -174q0 -158 -122 -246q-78 -54 -176 -54q-160 0 -246 126 q-52 78 -52 174zM608 750q-4 28 -24 30h-14l-96 156q94 24 96 108q0 72 -88 96q-32 8 -68 8l-220 2v-32h42v-338h-42v-30h198v30h-46v148h30l100 -180zM346 1118h36q54 0 66 -58q2 -12 2 -20q0 -66 -52 -78q-8 -2 -14 -2h-38v158z" />
<glyph unicode="&#xaf;" horiz-adv-x="1000" d="M186 1080h628v106h-628v-106z" />
<glyph unicode="&#xb0;" horiz-adv-x="568" d="M148 1084q0 86 72 128q32 16 64 16q80 0 118 -74q18 -32 18 -70q0 -84 -74 -122q-30 -14 -62 -14q-84 0 -122 74q-14 30 -14 62zM482 1084q0 108 -90 168q-50 34 -108 34q-106 0 -166 -92q-32 -52 -32 -110q0 -108 92 -164q50 -28 106 -28q110 0 168 90q30 48 30 102z " />
<glyph unicode="&#xb1;" horiz-adv-x="910" d="M840 508v80h-332v278h-104v-278h-334v-80h334v-278h104v278h332zM840 62v80h-770v-80h770z" />
<glyph unicode="&#xb2;" horiz-adv-x="720" d="M166 782q22 44 154 98q158 62 210 106q66 60 68 142q0 126 -150 170q-58 18 -124 18q-148 0 -222 -76q-40 -42 -40 -94q8 -82 92 -86q60 0 83 33t18 74t8 74t55 33q70 0 82 -86q2 -24 2 -56q0 -122 -114 -202q-18 -12 -58 -38q-108 -64 -140 -116q-30 -52 -30 -116v-16 h548l2 236h-30l-22 -58q-16 -38 -80 -40h-26h-286z" />
<glyph unicode="&#xb3;" horiz-adv-x="746" d="M640 1264v32h-534l-2 -242h30l22 54q18 48 62 52h32h204l-202 -210l32 -24q42 16 72 16q104 -4 106 -150q-4 -194 -130 -196q-60 0 -70 60q-2 10 -2 34q-6 76 -40 94q-24 12 -56 12q-78 -12 -86 -78q0 -102 134 -140q54 -14 114 -14q166 0 264 90q66 62 66 144 q0 110 -108 158q-56 26 -128 26q-28 0 -86 -8z" />
<glyph unicode="&#xb4;" horiz-adv-x="1000" d="M736 1124q36 30 38 74q0 64 -58 98q-24 14 -48 14q-30 0 -60 -24q-24 -18 -102 -122q-72 -92 -146 -160l30 -40q54 30 244 108q74 30 102 52z" />
<glyph unicode="&#xb5;" d="M374 -210q0 34 -64 262q-4 14 -6 24q66 -92 170 -94q140 0 238 148q16 24 28 50l10 -180h334q0 44 -24 50q-10 2 -24 2h-80v804h-340v-52h120l-2 -450q0 -178 -110 -250q-42 -26 -86 -26q-132 0 -152 150q-4 26 -4 52v576h-348v-52h128v-494q0 -124 -20 -358 q-12 -130 -12 -166q4 -134 120 -136q114 20 124 140z" />
<glyph unicode="&#xb6;" horiz-adv-x="1084" d="M462 -232q218 0 348 124q108 106 108 270l-2 986h144v52h-498q-302 0 -428 -192q-62 -96 -62 -218q0 -202 150 -312q114 -82 276 -82h48v-282q0 -238 -34 -276q-16 -16 -40 -16q-54 0 -72 70q-4 12 -8 38q-18 98 -58 126q-32 20 -78 20q-88 0 -114 -74q-6 -20 -6 -40 q0 -106 140 -162q84 -32 186 -32zM708 134q0 -212 -56 -270q-34 -34 -94 -40q46 52 46 296v1028h104v-1014z" />
<glyph unicode="&#xb7;" horiz-adv-x="536" d="M404 458q0 80 -72 120q-32 16 -64 16q-82 0 -120 -72q-16 -32 -16 -64q0 -84 74 -120q30 -14 62 -14q82 0 120 70q16 30 16 64z" />
<glyph unicode="&#xb8;" horiz-adv-x="1000" d="M316 -170l28 -20q52 36 98 36q74 0 88 -84q2 -16 2 -30q0 -112 -78 -130q-12 -2 -22 -2q-74 2 -134 78l-32 -28q78 -102 220 -106q156 0 220 100q26 40 26 86q0 102 -104 148q-54 22 -120 22q-58 0 -108 -22l58 134h-50z" />
<glyph unicode="&#xb9;" horiz-adv-x="630" d="M326 1298l-286 -196l30 -46l184 124v-480l-168 -14v-42h514q0 36 -38 42q-6 2 -12 2l-102 12v598h-122z" />
<glyph unicode="&#xba;" horiz-adv-x="620" d="M204 926q0 194 70 220q16 6 32 6q80 0 98 -110q6 -44 6 -112q0 -200 -74 -226q-14 -4 -30 -4q-82 0 -96 122q-6 42 -6 104zM310 1200q-164 0 -244 -118q-46 -68 -46 -152q0 -154 122 -232q72 -46 160 -46q158 0 242 116q50 72 50 162q0 154 -124 228q-72 42 -160 42z M42 486h532v72h-532v-72z" />
<glyph unicode="&#xbb;" horiz-adv-x="838" d="M404 756l40 34q42 -46 252 -240q56 -50 76 -74q30 -34 30 -68q-2 -36 -30 -68q-16 -20 -218 -206q-68 -62 -110 -104l-38 34q20 34 164 318l14 28l-40 80q-90 182 -140 266zM36 756l40 34q44 -48 252 -238q56 -52 78 -76q28 -36 28 -68q-2 -38 -28 -68q-14 -14 -218 -204 q-68 -62 -112 -106l-38 34q22 38 154 296q14 30 26 50q-16 30 -54 106q-84 164 -128 240z" />
<glyph unicode="&#xbc;" horiz-adv-x="1502" d="M378 -64l864 1284l-68 44l-866 -1284zM366 1232l-286 -196l30 -46l184 124v-480l-168 -14v-42h514q0 36 -38 42q-6 2 -12 2l-102 12v598h-122zM1416 -90q0 40 -22 44q-8 2 -18 2h-100v138h140v50h-140v258h-36l-16 -46q-26 -64 -96 -70h-28h-18v-140l-284 2 q260 180 324 234q162 136 162 228q0 72 -80 82q-10 2 -20 2q-64 0 -98 -66q-10 -18 -28 -60q-76 -174 -186 -290q-66 -68 -150 -130l10 -50l350 -2v-140h-154v-46h488z" />
<glyph unicode="&#xbd;" horiz-adv-x="1538" d="M376 -64l864 1284l-68 44l-866 -1284zM366 1232l-286 -196l30 -46l184 124v-480l-168 -14v-42h514q0 36 -38 42q-6 2 -12 2l-102 12v598h-122zM996 138q22 44 154 98q158 62 210 106q66 60 68 142q0 126 -150 170q-58 18 -124 18q-148 0 -222 -76q-40 -42 -40 -94 q8 -82 92 -86q60 0 83 33t18 74t8 74t55 33q70 0 82 -86q2 -24 2 -56q0 -122 -114 -202q-18 -12 -58 -38q-108 -64 -140 -116q-30 -52 -30 -116v-16h548l2 236h-30l-22 -58q-16 -38 -80 -40h-26h-286z" />
<glyph unicode="&#xbe;" horiz-adv-x="1520" d="M642 1198v32h-534l-2 -242h30l22 54q18 48 62 52h32h204l-202 -210l32 -24q42 16 72 16q104 -4 106 -150q-4 -194 -130 -196q-60 0 -70 60q-2 10 -2 34q-6 76 -40 94q-24 12 -56 12q-78 -12 -86 -78q0 -102 134 -140q54 -14 114 -14q166 0 264 90q66 62 66 144 q0 110 -108 158q-56 26 -128 26q-28 0 -86 -8zM394 -64l864 1284l-68 44l-866 -1284zM1434 -90q0 40 -22 44q-8 2 -18 2h-100v138h140v50h-140v258h-36l-16 -46q-26 -64 -96 -70h-28h-18v-140l-284 2q260 180 324 234q162 136 162 228q0 72 -80 82q-10 2 -20 2 q-64 0 -98 -66q-10 -18 -28 -60q-76 -174 -186 -290q-66 -68 -150 -130l10 -50l350 -2v-140h-154v-46h488z" />
<glyph unicode="&#xbf;" horiz-adv-x="980" d="M454 506q0 -150 -128 -262q-22 -20 -70 -56q-112 -86 -146 -146t-34 -132q0 -172 198 -232q78 -24 174 -24q190 0 290 88q56 52 58 118q0 90 -84 106q-14 2 -30 2q-84 0 -102 -78q-4 -16 -8 -50q-8 -90 -44 -114q-28 -20 -74 -20q-138 12 -144 168q0 156 80 278 q72 110 84 132q44 94 44 222h-64zM350 756q0 -78 70 -114q30 -16 60 -16q80 0 114 72q14 28 14 58q0 82 -72 116q-28 12 -56 12q-78 0 -114 -68q-16 -28 -16 -60z" />
<glyph unicode="&#xc0;" horiz-adv-x="1272" d="M1272 0q0 46 -28 52q-8 2 -22 2h-62l-468 1146h-124l-440 -1146h-128v-54h364q0 46 -28 52q-10 2 -22 2h-106l146 384h404l150 -384h-138v-54h502zM734 498h-358l178 468zM832 1264q-76 70 -184 210q-38 52 -64 72q-30 24 -60 24q-62 0 -94 -62q-12 -26 -12 -50 q2 -46 38 -74q28 -22 184 -84q98 -40 162 -76z" />
<glyph unicode="&#xc1;" horiz-adv-x="1272" d="M1272 0q0 46 -28 52q-8 2 -22 2h-62l-468 1146h-124l-440 -1146h-128v-54h364q0 46 -28 52q-10 2 -22 2h-106l146 384h404l150 -384h-138v-54h502zM734 498h-358l178 468zM824 1384q36 30 38 74q0 64 -58 98q-24 14 -48 14q-30 0 -60 -24q-24 -18 -102 -122 q-72 -92 -146 -160l30 -40q54 30 244 108q74 30 102 52z" />
<glyph unicode="&#xc2;" horiz-adv-x="1272" d="M1272 0q0 46 -28 52q-8 2 -22 2h-62l-468 1146h-124l-440 -1146h-128v-54h364q0 46 -28 52q-10 2 -22 2h-106l146 384h404l150 -384h-138v-54h502zM734 498h-358l178 468zM880 1260l26 36q-42 42 -156 182q-74 72 -120 78q-54 0 -110 -68q-12 -14 -40 -48 q-70 -90 -122 -146l26 -34q112 66 250 124q118 -50 246 -124z" />
<glyph unicode="&#xc3;" horiz-adv-x="1272" d="M1272 0q0 46 -28 52q-8 2 -22 2h-62l-468 1146h-124l-440 -1146h-128v-54h364q0 46 -28 52q-10 2 -22 2h-106l146 384h404l150 -384h-138v-54h502zM734 498h-358l178 468zM518 1552q60 0 158 -66q80 -56 124 -56q82 4 110 112l42 -8q-26 -200 -142 -238q-22 -8 -46 -8 q-60 0 -158 66q-80 56 -120 56q-80 0 -110 -92q-2 -10 -4 -18l-40 6q24 204 142 240q22 6 44 6z" />
<glyph unicode="&#xc4;" horiz-adv-x="1272" d="M1272 0q0 46 -28 52q-8 2 -22 2h-62l-468 1146h-124l-440 -1146h-128v-54h364q0 46 -28 52q-10 2 -22 2h-106l146 384h404l150 -384h-138v-54h502zM734 498h-358l178 468zM568 1398q0 74 -66 110q-28 14 -56 14q-78 0 -114 -70q-12 -26 -12 -54q0 -78 70 -110 q28 -12 56 -12q74 0 108 66q14 26 14 56zM940 1398q0 76 -68 110q-28 14 -58 14q-72 0 -108 -66q-14 -28 -14 -58q0 -78 70 -110q26 -12 52 -12q82 0 114 70q12 26 12 52z" />
<glyph unicode="&#xc5;" horiz-adv-x="1272" d="M1272 0q0 46 -28 52q-8 2 -22 2h-62l-462 1130q136 24 164 136q6 24 6 48q0 118 -112 164q-50 18 -110 18q-170 0 -218 -114q-14 -34 -14 -70q0 -122 108 -168q20 -8 40 -12l-434 -1132h-128v-54h364q0 46 -28 52q-10 2 -22 2h-106l146 384h404l150 -384h-138v-54h502z M734 498h-358l178 468zM554 1362q2 138 86 140q88 -2 88 -136q-2 -138 -88 -140q-86 2 -86 136z" />
<glyph unicode="&#xc6;" horiz-adv-x="1784" d="M500 530l374 612v-612h-374zM372 0q0 46 -26 50q-10 2 -22 2h-114l254 418h410v-416h-164v-54h974l8 384h-52l-40 -132q-54 -176 -190 -196q-20 -2 -40 -2h-250v534h386v60h-386v498h250q172 -2 230 -198l40 -132h52l-8 384h-860l-704 -1148h-120v-52h372z" />
<glyph unicode="&#xc7;" horiz-adv-x="1216" d="M1092 82q-2 -78 32 -88q14 -4 36 -4v388h-60q-84 -302 -320 -336q-34 -4 -68 -4q-360 4 -362 568q0 438 244 534q60 22 130 22q226 0 326 -222q22 -52 40 -116h64l-6 386q-50 0 -60 -34q-4 -20 -4 -58q-166 102 -384 102q-330 0 -504 -234q-124 -168 -124 -384 q0 -260 168 -438q142 -148 358 -178l-80 -156l28 -20q52 36 98 36q74 0 88 -84q2 -16 2 -30q0 -112 -78 -130q-12 -2 -22 -2q-74 2 -134 78l-32 -28q78 -102 220 -106q156 0 220 100q26 40 26 86q0 102 -104 148q-54 22 -120 22q-58 0 -108 -22l44 104q20 -2 54 -2 q206 2 392 102z" />
<glyph unicode="&#xc8;" horiz-adv-x="1130" d="M1036 824l-8 376h-976v-54h160v-1092h-160v-54h976l8 376h-52l-40 -124q-52 -156 -156 -188q-34 -10 -74 -10h-256v534h394v60h-394v498h256q154 0 218 -160q8 -18 14 -38l38 -124h52zM792 1264q-76 70 -184 210q-38 52 -64 72q-30 24 -60 24q-62 0 -94 -62 q-12 -26 -12 -50q2 -46 38 -74q28 -22 184 -84q98 -40 162 -76z" />
<glyph unicode="&#xc9;" horiz-adv-x="1130" d="M1036 824l-8 376h-976v-54h160v-1092h-160v-54h976l8 376h-52l-40 -124q-52 -156 -156 -188q-34 -10 -74 -10h-256v534h394v60h-394v498h256q154 0 218 -160q8 -18 14 -38l38 -124h52zM788 1398q36 30 38 74q0 64 -58 98q-24 14 -48 14q-30 0 -60 -24q-24 -18 -102 -122 q-72 -92 -146 -160l30 -40q54 30 244 108q74 30 102 52z" />
<glyph unicode="&#xca;" horiz-adv-x="1130" d="M1036 824l-8 376h-976v-54h160v-1092h-160v-54h976l8 376h-52l-40 -124q-52 -156 -156 -188q-34 -10 -74 -10h-256v534h394v60h-394v498h256q154 0 218 -160q8 -18 14 -38l38 -124h52zM840 1260l26 36q-42 42 -156 182q-74 72 -120 78q-54 0 -110 -68q-12 -14 -40 -48 q-70 -90 -122 -146l26 -34q112 66 250 124q118 -50 246 -124z" />
<glyph unicode="&#xcb;" horiz-adv-x="1130" d="M1036 824l-8 376h-976v-54h160v-1092h-160v-54h976l8 376h-52l-40 -124q-52 -156 -156 -188q-34 -10 -74 -10h-256v534h394v60h-394v498h256q154 0 218 -160q8 -18 14 -38l38 -124h52zM528 1398q0 74 -66 110q-28 14 -56 14q-78 0 -114 -70q-12 -26 -12 -54 q0 -78 70 -110q28 -12 56 -12q74 0 108 66q14 26 14 56zM900 1398q0 76 -68 110q-28 14 -58 14q-72 0 -108 -66q-14 -28 -14 -58q0 -78 70 -110q26 -12 52 -12q82 0 114 70q12 26 12 52z" />
<glyph unicode="&#xcc;" horiz-adv-x="670" d="M618 0q-12 50 -54 54h-106v1092h160v54h-566v-54h160v-1092h-160v-54h566zM532 1264q-76 70 -184 210q-38 52 -64 72q-30 24 -60 24q-62 0 -94 -62q-12 -26 -12 -50q2 -46 38 -74q28 -22 184 -84q98 -40 162 -76z" />
<glyph unicode="&#xcd;" horiz-adv-x="670" d="M618 0q-12 50 -54 54h-106v1092h160v54h-566v-54h160v-1092h-160v-54h566zM524 1384q36 30 38 74q0 64 -58 98q-24 14 -48 14q-30 0 -60 -24q-24 -18 -102 -122q-72 -92 -146 -160l30 -40q54 30 244 108q74 30 102 52z" />
<glyph unicode="&#xce;" horiz-adv-x="670" d="M618 0q-12 50 -54 54h-106v1092h160v54h-566v-54h160v-1092h-160v-54h566zM580 1260l26 36q-42 42 -156 182q-74 72 -120 78q-54 0 -110 -68q-12 -14 -40 -48q-70 -90 -122 -146l26 -34q112 66 250 124q118 -50 246 -124z" />
<glyph unicode="&#xcf;" horiz-adv-x="670" d="M618 0q-12 50 -54 54h-106v1092h160v54h-566v-54h160v-1092h-160v-54h566zM268 1398q0 74 -66 110q-28 14 -56 14q-78 0 -114 -70q-12 -26 -12 -54q0 -78 70 -110q28 -12 56 -12q74 0 108 66q14 26 14 56zM640 1398q0 76 -68 110q-28 14 -58 14q-72 0 -108 -66 q-14 -28 -14 -58q0 -78 70 -110q26 -12 52 -12q82 0 114 70q12 26 12 52z" />
<glyph unicode="&#xd0;" horiz-adv-x="1346" d="M52 1200v-54h160v-482h-146v-86h146v-524h-160v-54h582q274 0 452 168q176 166 176 430q0 336 -250 498q-162 104 -380 104h-580zM634 1146q244 0 318 -236q36 -120 36 -304q0 -458 -234 -534q-54 -18 -120 -18h-176v524h196v86h-196v482h176z" />
<glyph unicode="&#xd1;" horiz-adv-x="1332" d="M912 1146h164v-812l-724 866h-318v-54h160v-1092h-160v-54h412q-12 50 -54 54h-116v862l776 -926l106 20v1136h160v54h-406v-54zM558 1552q60 0 158 -66q80 -56 124 -56q82 4 110 112l42 -8q-26 -200 -142 -238q-22 -8 -46 -8q-60 0 -158 66q-80 56 -120 56 q-80 0 -110 -92q-2 -10 -4 -18l-40 6q24 204 142 240q22 6 44 6z" />
<glyph unicode="&#xd2;" horiz-adv-x="1408" d="M710 1220q-258 0 -438 -164q-190 -174 -190 -450q0 -318 226 -494q170 -132 396 -132q256 0 434 166q188 176 188 452q0 328 -232 500q-164 122 -384 122zM710 38q-248 0 -318 262q-32 122 -32 298q0 534 306 562q20 2 38 2q268 0 326 -326q18 -100 18 -230 q0 -492 -248 -558q-42 -10 -90 -10zM914 1264q-76 70 -184 210q-38 52 -64 72q-30 24 -60 24q-62 0 -94 -62q-12 -26 -12 -50q2 -46 38 -74q28 -22 184 -84q98 -40 162 -76z" />
<glyph unicode="&#xd3;" horiz-adv-x="1408" d="M710 1220q-258 0 -438 -164q-190 -174 -190 -450q0 -318 226 -494q170 -132 396 -132q256 0 434 166q188 176 188 452q0 328 -232 500q-164 122 -384 122zM710 38q-248 0 -318 262q-32 122 -32 298q0 534 306 562q20 2 38 2q268 0 326 -326q18 -100 18 -230 q0 -492 -248 -558q-42 -10 -90 -10zM906 1384q36 30 38 74q0 64 -58 98q-24 14 -48 14q-30 0 -60 -24q-24 -18 -102 -122q-72 -92 -146 -160l30 -40q54 30 244 108q74 30 102 52z" />
<glyph unicode="&#xd4;" horiz-adv-x="1408" d="M710 1220q-258 0 -438 -164q-190 -174 -190 -450q0 -318 226 -494q170 -132 396 -132q256 0 434 166q188 176 188 452q0 328 -232 500q-164 122 -384 122zM710 38q-248 0 -318 262q-32 122 -32 298q0 534 306 562q20 2 38 2q268 0 326 -326q18 -100 18 -230 q0 -492 -248 -558q-42 -10 -90 -10zM960 1260l26 36q-42 42 -156 182q-74 72 -120 78q-54 0 -110 -68q-12 -14 -40 -48q-70 -90 -122 -146l26 -34q112 66 250 124q118 -50 246 -124z" />
<glyph unicode="&#xd5;" horiz-adv-x="1408" d="M710 1220q-258 0 -438 -164q-190 -174 -190 -450q0 -318 226 -494q170 -132 396 -132q256 0 434 166q188 176 188 452q0 328 -232 500q-164 122 -384 122zM710 38q-248 0 -318 262q-32 122 -32 298q0 534 306 562q20 2 38 2q268 0 326 -326q18 -100 18 -230 q0 -492 -248 -558q-42 -10 -90 -10zM600 1552q60 0 158 -66q80 -56 124 -56q82 4 110 112l42 -8q-26 -200 -142 -238q-22 -8 -46 -8q-60 0 -158 66q-80 56 -120 56q-80 0 -110 -92q-2 -10 -4 -18l-40 6q24 204 142 240q22 6 44 6z" />
<glyph unicode="&#xd6;" horiz-adv-x="1408" d="M710 1220q-258 0 -438 -164q-190 -174 -190 -450q0 -318 226 -494q170 -132 396 -132q256 0 434 166q188 176 188 452q0 328 -232 500q-164 122 -384 122zM710 38q-248 0 -318 262q-32 122 -32 298q0 534 306 562q20 2 38 2q268 0 326 -326q18 -100 18 -230 q0 -492 -248 -558q-42 -10 -90 -10zM650 1398q0 74 -66 110q-28 14 -56 14q-78 0 -114 -70q-12 -26 -12 -54q0 -78 70 -110q28 -12 56 -12q74 0 108 66q14 26 14 56zM1022 1398q0 76 -68 110q-28 14 -58 14q-72 0 -108 -66q-14 -28 -14 -58q0 -78 70 -110q26 -12 52 -12 q82 0 114 70q12 26 12 52z" />
<glyph unicode="&#xd7;" horiz-adv-x="806" d="M656 152l60 60l-258 258l258 256l-58 58l-256 -256l-258 256l-60 -60l258 -256l-256 -256l56 -58l256 256z" />
<glyph unicode="&#xd8;" horiz-adv-x="1408" d="M710 1220q-258 0 -438 -164q-190 -174 -190 -450q0 -318 228 -496q46 -36 98 -62l-142 -358h154l122 310q76 -20 162 -20q256 0 434 166q188 176 188 452q0 328 -232 500q-46 34 -96 58l104 264h-154l-86 -216q-78 16 -152 16zM360 598q0 534 306 562q20 2 38 2 q76 0 132 -24l-384 -976q-92 138 -92 436zM710 38q-82 0 -142 26l386 978q94 -140 94 -436q0 -492 -248 -558q-42 -10 -90 -10z" />
<glyph unicode="&#xd9;" horiz-adv-x="1284" d="M20 1146h160v-702q4 -462 494 -464q328 0 410 254q30 98 30 234v678h160v54h-392v-54h160v-690q-2 -416 -326 -418q-226 0 -276 238q-16 78 -16 182v688h160v54h-564v-54zM890 1264q-76 70 -184 210q-38 52 -64 72q-30 24 -60 24q-62 0 -94 -62q-12 -26 -12 -50 q2 -46 38 -74q28 -22 184 -84q98 -40 162 -76z" />
<glyph unicode="&#xda;" horiz-adv-x="1284" d="M20 1146h160v-702q4 -462 494 -464q328 0 410 254q30 98 30 234v678h160v54h-392v-54h160v-690q-2 -416 -326 -418q-226 0 -276 238q-16 78 -16 182v688h160v54h-564v-54zM882 1384q36 30 38 74q0 64 -58 98q-24 14 -48 14q-30 0 -60 -24q-24 -18 -102 -122 q-72 -92 -146 -160l30 -40q54 30 244 108q74 30 102 52z" />
<glyph unicode="&#xdb;" horiz-adv-x="1284" d="M20 1146h160v-702q4 -462 494 -464q328 0 410 254q30 98 30 234v678h160v54h-392v-54h160v-690q-2 -416 -326 -418q-226 0 -276 238q-16 78 -16 182v688h160v54h-564v-54zM936 1260l26 36q-42 42 -156 182q-74 72 -120 78q-54 0 -110 -68q-12 -14 -40 -48 q-70 -90 -122 -146l26 -34q112 66 250 124q118 -50 246 -124z" />
<glyph unicode="&#xdc;" horiz-adv-x="1284" d="M20 1146h160v-702q4 -462 494 -464q328 0 410 254q30 98 30 234v678h160v54h-392v-54h160v-690q-2 -416 -326 -418q-226 0 -276 238q-16 78 -16 182v688h160v54h-564v-54zM626 1398q0 74 -66 110q-28 14 -56 14q-78 0 -114 -70q-12 -26 -12 -54q0 -78 70 -110 q28 -12 56 -12q74 0 108 66q14 26 14 56zM998 1398q0 76 -68 110q-28 14 -58 14q-72 0 -108 -66q-14 -28 -14 -58q0 -78 70 -110q26 -12 52 -12q82 0 114 70q12 26 12 52z" />
<glyph unicode="&#xdd;" horiz-adv-x="1142" d="M872 0q-12 50 -54 54h-114v460l282 576q38 54 102 56q50 12 54 54h-354v-54h160l-280 -564l-302 564h152v54h-524v-54h100l366 -648v-444h-168v-54h580zM814 1384q36 30 38 74q0 64 -58 98q-24 14 -48 14q-30 0 -60 -24q-24 -18 -102 -122q-72 -92 -146 -160l30 -40 q54 30 244 108q74 30 102 52z" />
<glyph unicode="&#xde;" horiz-adv-x="1158" d="M590 906q208 0 220 -250v-26q-4 -280 -238 -282h-130v558h148zM592 0q0 46 -24 52q-12 2 -26 2h-100v234h168q338 0 434 206q30 68 30 148q0 192 -170 274q-94 44 -224 44h-238v186h150v54h-542v-54h146v-1092h-146v-54h542z" />
<glyph unicode="&#xdf;" horiz-adv-x="1176" d="M1142 238q0 156 -154 266q-26 18 -78 50q-112 70 -138 114q-16 28 -16 58q0 70 86 118l36 18q98 50 124 98q20 36 20 80q0 144 -162 216q-98 42 -222 42q-258 0 -370 -172q-62 -100 -62 -242v-28h-156v-52h156v-648q-4 -104 -152 -104v-52h372v868q0 332 138 378 q28 8 60 8q132 0 162 -146q8 -36 8 -78q0 -102 -88 -164q-10 -6 -32 -22q-80 -50 -102 -94q-18 -38 -18 -86q0 -112 130 -210q22 -16 68 -46q126 -84 160 -140q30 -48 30 -100q0 -118 -104 -134q-14 -2 -28 -2q-70 0 -100 82q-4 12 -10 36q-24 80 -56 96q-18 8 -36 8 q-80 0 -98 -64q-4 -14 -4 -26q0 -106 142 -156q80 -28 174 -28q166 0 260 102q60 66 60 156z" />
<glyph unicode="&#xe0;" horiz-adv-x="978" d="M778 -20q142 0 176 112q10 40 14 96l-52 2q-12 -140 -72 -142q-46 4 -46 100v420q0 258 -244 306q-50 10 -106 10q-252 0 -326 -112q-22 -32 -22 -68q0 -68 64 -88q18 -6 36 -6q72 0 100 74q4 10 12 34q24 82 62 102q26 12 58 12q120 0 140 -142q4 -32 4 -70v-128 q-524 -8 -526 -274q0 -172 150 -222q48 -16 104 -16q158 0 246 112q24 34 38 70q32 -180 190 -182zM396 64q-112 0 -120 160v20q0 136 136 172q64 18 164 20v-182q-34 -136 -128 -178q-28 -12 -52 -12zM690 1004q-76 70 -184 210q-38 52 -64 72q-30 24 -60 24q-62 0 -94 -62 q-12 -26 -12 -50q2 -46 38 -74q28 -22 184 -84q98 -40 162 -76z" />
<glyph unicode="&#xe1;" horiz-adv-x="978" d="M778 -20q142 0 176 112q10 40 14 96l-52 2q-12 -140 -72 -142q-46 4 -46 100v420q0 258 -244 306q-50 10 -106 10q-252 0 -326 -112q-22 -32 -22 -68q0 -68 64 -88q18 -6 36 -6q72 0 100 74q4 10 12 34q24 82 62 102q26 12 58 12q120 0 140 -142q4 -32 4 -70v-128 q-524 -8 -526 -274q0 -172 150 -222q48 -16 104 -16q158 0 246 112q24 34 38 70q32 -180 190 -182zM396 64q-112 0 -120 160v20q0 136 136 172q64 18 164 20v-182q-34 -136 -128 -178q-28 -12 -52 -12zM682 1124q36 30 38 74q0 64 -58 98q-24 14 -48 14q-30 0 -60 -24 q-24 -18 -102 -122q-72 -92 -146 -160l30 -40q54 30 244 108q74 30 102 52z" />
<glyph unicode="&#xe2;" horiz-adv-x="978" d="M778 -20q142 0 176 112q10 40 14 96l-52 2q-12 -140 -72 -142q-46 4 -46 100v420q0 258 -244 306q-50 10 -106 10q-252 0 -326 -112q-22 -32 -22 -68q0 -68 64 -88q18 -6 36 -6q72 0 100 74q4 10 12 34q24 82 62 102q26 12 58 12q120 0 140 -142q4 -32 4 -70v-128 q-524 -8 -526 -274q0 -172 150 -222q48 -16 104 -16q158 0 246 112q24 34 38 70q32 -180 190 -182zM396 64q-112 0 -120 160v20q0 136 136 172q64 18 164 20v-182q-34 -136 -128 -178q-28 -12 -52 -12zM738 1000l26 36q-42 42 -156 182q-74 72 -120 78q-54 0 -110 -68 q-12 -14 -40 -48q-70 -90 -122 -146l26 -34q112 66 250 124q118 -50 246 -124z" />
<glyph unicode="&#xe3;" horiz-adv-x="978" d="M778 -20q142 0 176 112q10 40 14 96l-52 2q-12 -140 -72 -142q-46 4 -46 100v420q0 258 -244 306q-50 10 -106 10q-252 0 -326 -112q-22 -32 -22 -68q0 -68 64 -88q18 -6 36 -6q72 0 100 74q4 10 12 34q24 82 62 102q26 12 58 12q120 0 140 -142q4 -32 4 -70v-128 q-524 -8 -526 -274q0 -172 150 -222q48 -16 104 -16q158 0 246 112q24 34 38 70q32 -180 190 -182zM396 64q-112 0 -120 160v20q0 136 136 172q64 18 164 20v-182q-34 -136 -128 -178q-28 -12 -52 -12zM376 1292q60 0 158 -66q80 -56 124 -56q82 4 110 112l42 -8 q-26 -200 -142 -238q-22 -8 -46 -8q-60 0 -158 66q-80 56 -120 56q-80 0 -110 -92q-2 -10 -4 -18l-40 6q24 204 142 240q22 6 44 6z" />
<glyph unicode="&#xe4;" horiz-adv-x="978" d="M778 -20q142 0 176 112q10 40 14 96l-52 2q-12 -140 -72 -142q-46 4 -46 100v420q0 258 -244 306q-50 10 -106 10q-252 0 -326 -112q-22 -32 -22 -68q0 -68 64 -88q18 -6 36 -6q72 0 100 74q4 10 12 34q24 82 62 102q26 12 58 12q120 0 140 -142q4 -32 4 -70v-128 q-524 -8 -526 -274q0 -172 150 -222q48 -16 104 -16q158 0 246 112q24 34 38 70q32 -180 190 -182zM396 64q-112 0 -120 160v20q0 136 136 172q64 18 164 20v-182q-34 -136 -128 -178q-28 -12 -52 -12zM426 1138q0 74 -66 110q-28 14 -56 14q-78 0 -114 -70q-12 -26 -12 -54 q0 -78 70 -110q28 -12 56 -12q74 0 108 66q14 26 14 56zM798 1138q0 76 -68 110q-28 14 -58 14q-72 0 -108 -66q-14 -28 -14 -58q0 -78 70 -110q26 -12 52 -12q82 0 114 70q12 26 12 52z" />
<glyph unicode="&#xe5;" horiz-adv-x="978" d="M778 -20q142 0 176 112q10 40 14 96l-52 2q-12 -140 -72 -142q-46 4 -46 100v420q0 258 -244 306q-50 10 -106 10q-252 0 -326 -112q-22 -32 -22 -68q0 -68 64 -88q18 -6 36 -6q72 0 100 74q4 10 12 34q24 82 62 102q26 12 58 12q120 0 140 -142q4 -32 4 -70v-128 q-524 -8 -526 -274q0 -172 150 -222q48 -16 104 -16q158 0 246 112q24 34 38 70q32 -180 190 -182zM396 64q-112 0 -120 160v20q0 136 136 172q64 18 164 20v-182q-34 -136 -128 -178q-28 -12 -52 -12zM394 1148q2 138 86 140q88 -2 88 -136q-2 -138 -88 -140q-86 2 -86 136 zM486 1336q-170 0 -218 -114q-14 -34 -14 -70q0 -124 114 -168q48 -20 108 -20q164 0 216 114q16 36 16 76q0 118 -112 164q-50 18 -110 18z" />
<glyph unicode="&#xe6;" horiz-adv-x="1434" d="M988 834q154 -6 156 -214q0 -96 -68 -118q-42 -12 -124 -10l-156 6q10 334 192 336zM1358 208l-50 10q-58 -126 -182 -166q-44 -14 -86 -14q-232 0 -244 392v12l202 -4q294 -6 356 80q22 34 22 80q0 158 -158 238q-98 48 -222 48q-166 -2 -276 -102q-94 102 -274 102 q-264 0 -336 -116q-18 -30 -18 -64q0 -68 64 -88q18 -6 36 -6q70 0 100 74q2 12 10 32q26 82 64 104q28 14 64 14q148 -4 150 -214v-128q-514 -6 -536 -248q-2 -14 -2 -26q0 -172 152 -222q48 -16 104 -16q168 0 266 124q36 48 54 104q88 -226 380 -228q234 0 332 170 q18 28 28 58zM394 64q-124 4 -126 180q0 138 146 176q66 16 166 18v-184q-34 -134 -132 -178q-28 -12 -54 -12z" />
<glyph unicode="&#xe7;" horiz-adv-x="896" d="M66 426q0 -276 210 -390q62 -32 132 -46l-80 -160l28 -20q52 36 98 36q74 0 88 -84q2 -16 2 -30q0 -112 -78 -130q-12 -2 -22 -2q-74 2 -134 78l-32 -28q78 -102 220 -106q156 0 220 100q26 40 26 86q0 102 -104 148q-54 22 -120 22q-58 0 -108 -22l46 104q20 -2 58 -2 q208 0 318 132q34 40 52 88l-52 14q-62 -132 -208 -166q-38 -10 -80 -10q-236 4 -238 388q0 366 162 404q24 4 46 4q94 0 116 -82q4 -18 8 -54q14 -88 48 -112q26 -16 66 -18q90 0 112 70q4 16 4 30q0 90 -110 156q-102 60 -244 60q-224 0 -350 -156q-100 -122 -100 -302z " />
<glyph unicode="&#xe8;" horiz-adv-x="944" d="M504 832q124 0 148 -146q6 -32 6 -66q0 -94 -68 -118q-44 -12 -128 -10l-154 6q8 284 150 328q24 6 46 6zM870 202l-48 16q-58 -126 -184 -166q-42 -14 -86 -14q-234 0 -244 398v4l202 -4q300 -6 360 86q20 32 20 76q0 158 -160 238q-100 48 -226 48q-230 0 -352 -166 q-86 -118 -86 -286q0 -274 202 -392q108 -60 242 -60q228 0 330 162q18 30 30 60zM678 1004q-76 70 -184 210q-38 52 -64 72q-30 24 -60 24q-62 0 -94 -62q-12 -26 -12 -50q2 -46 38 -74q28 -22 184 -84q98 -40 162 -76z" />
<glyph unicode="&#xe9;" horiz-adv-x="944" d="M504 832q124 0 148 -146q6 -32 6 -66q0 -94 -68 -118q-44 -12 -128 -10l-154 6q8 284 150 328q24 6 46 6zM870 202l-48 16q-58 -126 -184 -166q-42 -14 -86 -14q-234 0 -244 398v4l202 -4q300 -6 360 86q20 32 20 76q0 158 -160 238q-100 48 -226 48q-230 0 -352 -166 q-86 -118 -86 -286q0 -274 202 -392q108 -60 242 -60q228 0 330 162q18 30 30 60zM670 1124q36 30 38 74q0 64 -58 98q-24 14 -48 14q-30 0 -60 -24q-24 -18 -102 -122q-72 -92 -146 -160l30 -40q54 30 244 108q74 30 102 52z" />
<glyph unicode="&#xea;" horiz-adv-x="944" d="M504 832q124 0 148 -146q6 -32 6 -66q0 -94 -68 -118q-44 -12 -128 -10l-154 6q8 284 150 328q24 6 46 6zM870 202l-48 16q-58 -126 -184 -166q-42 -14 -86 -14q-234 0 -244 398v4l202 -4q300 -6 360 86q20 32 20 76q0 158 -160 238q-100 48 -226 48q-230 0 -352 -166 q-86 -118 -86 -286q0 -274 202 -392q108 -60 242 -60q228 0 330 162q18 30 30 60zM726 1000l26 36q-42 42 -156 182q-74 72 -120 78q-54 0 -110 -68q-12 -14 -40 -48q-70 -90 -122 -146l26 -34q112 66 250 124q118 -50 246 -124z" />
<glyph unicode="&#xeb;" horiz-adv-x="944" d="M504 832q124 0 148 -146q6 -32 6 -66q0 -94 -68 -118q-44 -12 -128 -10l-154 6q8 284 150 328q24 6 46 6zM870 202l-48 16q-58 -126 -184 -166q-42 -14 -86 -14q-234 0 -244 398v4l202 -4q300 -6 360 86q20 32 20 76q0 158 -160 238q-100 48 -226 48q-230 0 -352 -166 q-86 -118 -86 -286q0 -274 202 -392q108 -60 242 -60q228 0 330 162q18 30 30 60zM414 1138q0 74 -66 110q-28 14 -56 14q-78 0 -114 -70q-12 -26 -12 -54q0 -78 70 -110q28 -12 56 -12q74 0 108 66q14 26 14 56zM786 1138q0 76 -68 110q-28 14 -58 14q-72 0 -108 -66 q-14 -28 -14 -58q0 -78 70 -110q26 -12 52 -12q82 0 114 70q12 26 12 52z" />
<glyph unicode="&#xec;" horiz-adv-x="568" d="M484 52h-80v804h-358v-52h128v-648q0 -92 -90 -102q-18 -2 -38 -2v-52h486q0 46 -26 50q-10 2 -22 2zM486 1004q-76 70 -184 210q-38 52 -64 72q-30 24 -60 24q-62 0 -94 -62q-12 -26 -12 -50q2 -46 38 -74q28 -22 184 -84q98 -40 162 -76z" />
<glyph unicode="&#xed;" horiz-adv-x="568" d="M484 52h-80v804h-358v-52h128v-648q0 -92 -90 -102q-18 -2 -38 -2v-52h486q0 46 -26 50q-10 2 -22 2zM478 1124q36 30 38 74q0 64 -58 98q-24 14 -48 14q-30 0 -60 -24q-24 -18 -102 -122q-72 -92 -146 -160l30 -40q54 30 244 108q74 30 102 52z" />
<glyph unicode="&#xee;" horiz-adv-x="568" d="M484 52h-80v804h-358v-52h128v-648q0 -92 -90 -102q-18 -2 -38 -2v-52h486q0 46 -26 50q-10 2 -22 2zM534 1000l26 36q-42 42 -156 182q-74 72 -120 78q-54 0 -110 -68q-12 -14 -40 -48q-70 -90 -122 -146l26 -34q112 66 250 124q118 -50 246 -124z" />
<glyph unicode="&#xef;" horiz-adv-x="568" d="M236 1136q0 76 -68 108q-24 12 -50 12q-78 0 -110 -70q-10 -24 -10 -50q0 -74 66 -106q26 -12 54 -12q72 0 106 66q12 26 12 52zM572 1136q0 74 -68 108q-26 12 -54 12q-74 0 -106 -66q-12 -26 -12 -54q0 -74 66 -106q26 -12 52 -12q74 0 108 64q14 26 14 54zM484 52h-80 v804h-358v-52h128v-648q0 -92 -90 -102q-18 -2 -38 -2v-52h486q0 46 -26 50q-10 2 -22 2z" />
<glyph unicode="&#xf0;" horiz-adv-x="1148" d="M970 490q0 282 -166 508q-66 92 -154 158l172 98l-30 52l-200 -112q-158 96 -360 106l-6 -54q168 -14 280 -100l-246 -138l32 -56l262 148q100 -112 144 -332q-82 40 -186 40q-200 0 -332 -130q-114 -114 -114 -276q0 -210 162 -332q122 -92 284 -92q274 0 392 224 q66 126 66 288zM308 394q0 294 128 348q36 16 84 16q158 0 196 -178q16 -72 16 -178q0 -346 -182 -372q-16 -2 -32 -2q-154 0 -192 168q-18 78 -18 198z" />
<glyph unicode="&#xf1;" d="M456 52h-62l2 494q14 160 120 220q38 20 76 20q112 0 142 -118q10 -36 10 -80v-428q0 -84 -46 -100q-22 -8 -64 -8v-52h458q0 44 -26 50q-12 2 -24 2h-78v506q0 236 -164 304q-52 22 -112 22q-144 0 -244 -114q-32 -38 -52 -80l-10 166h-336v-50h128v-646q0 -88 -66 -102 q-26 -6 -62 -6v-52h460q0 44 -26 50q-12 2 -24 2zM450 1292q60 0 158 -66q80 -56 124 -56q82 4 110 112l42 -8q-26 -200 -142 -238q-22 -8 -46 -8q-60 0 -158 66q-80 56 -120 56q-80 0 -110 -92q-2 -10 -4 -18l-40 6q24 204 142 240q22 6 44 6z" />
<glyph unicode="&#xf2;" horiz-adv-x="1036" d="M308 432q0 304 108 374q44 26 102 26q152 0 192 -172q20 -84 20 -220q0 -322 -122 -388q-40 -20 -90 -20q-150 0 -190 172q-20 86 -20 228zM526 884q-228 0 -360 -156q-100 -120 -100 -288q0 -232 164 -364q120 -96 282 -96q222 0 354 160q104 126 104 300 q0 234 -168 358q-116 86 -276 86zM736 1004q-76 70 -184 210q-38 52 -64 72q-30 24 -60 24q-62 0 -94 -62q-12 -26 -12 -50q2 -46 38 -74q28 -22 184 -84q98 -40 162 -76z" />
<glyph unicode="&#xf3;" horiz-adv-x="1036" d="M308 432q0 304 108 374q44 26 102 26q152 0 192 -172q20 -84 20 -220q0 -322 -122 -388q-40 -20 -90 -20q-150 0 -190 172q-20 86 -20 228zM526 884q-228 0 -360 -156q-100 -120 -100 -288q0 -232 164 -364q120 -96 282 -96q222 0 354 160q104 126 104 300 q0 234 -168 358q-116 86 -276 86zM728 1124q36 30 38 74q0 64 -58 98q-24 14 -48 14q-30 0 -60 -24q-24 -18 -102 -122q-72 -92 -146 -160l30 -40q54 30 244 108q74 30 102 52z" />
<glyph unicode="&#xf4;" horiz-adv-x="1036" d="M308 432q0 304 108 374q44 26 102 26q152 0 192 -172q20 -84 20 -220q0 -322 -122 -388q-40 -20 -90 -20q-150 0 -190 172q-20 86 -20 228zM526 884q-228 0 -360 -156q-100 -120 -100 -288q0 -232 164 -364q120 -96 282 -96q222 0 354 160q104 126 104 300 q0 234 -168 358q-116 86 -276 86zM784 1000l26 36q-42 42 -156 182q-74 72 -120 78q-54 0 -110 -68q-12 -14 -40 -48q-70 -90 -122 -146l26 -34q112 66 250 124q118 -50 246 -124z" />
<glyph unicode="&#xf5;" horiz-adv-x="1036" d="M308 432q0 304 108 374q44 26 102 26q152 0 192 -172q20 -84 20 -220q0 -322 -122 -388q-40 -20 -90 -20q-150 0 -190 172q-20 86 -20 228zM526 884q-228 0 -360 -156q-100 -120 -100 -288q0 -232 164 -364q120 -96 282 -96q222 0 354 160q104 126 104 300 q0 234 -168 358q-116 86 -276 86zM422 1292q60 0 158 -66q80 -56 124 -56q82 4 110 112l42 -8q-26 -200 -142 -238q-22 -8 -46 -8q-60 0 -158 66q-80 56 -120 56q-80 0 -110 -92q-2 -10 -4 -18l-40 6q24 204 142 240q22 6 44 6z" />
<glyph unicode="&#xf6;" horiz-adv-x="1036" d="M308 432q0 304 108 374q44 26 102 26q152 0 192 -172q20 -84 20 -220q0 -322 -122 -388q-40 -20 -90 -20q-150 0 -190 172q-20 86 -20 228zM526 884q-228 0 -360 -156q-100 -120 -100 -288q0 -232 164 -364q120 -96 282 -96q222 0 354 160q104 126 104 300 q0 234 -168 358q-116 86 -276 86zM472 1138q0 74 -66 110q-28 14 -56 14q-78 0 -114 -70q-12 -26 -12 -54q0 -78 70 -110q28 -12 56 -12q74 0 108 66q14 26 14 56zM844 1138q0 76 -68 110q-28 14 -58 14q-72 0 -108 -66q-14 -28 -14 -58q0 -78 70 -110q26 -12 52 -12 q82 0 114 70q12 26 12 52z" />
<glyph unicode="&#xf7;" horiz-adv-x="910" d="M840 428v80h-770v-80h770zM414 244q52 26 92 -10q16 -14 22 -34q26 -44 -4 -86q-16 -20 -40 -28q-52 -28 -94 10q-14 14 -22 34q-14 28 -12 56q14 42 58 58zM414 842q52 26 92 -10q16 -14 22 -34q26 -44 -4 -86q-16 -20 -40 -28q-52 -28 -94 10q-14 14 -22 34 q-14 28 -12 56q14 42 58 58z" />
<glyph unicode="&#xf8;" horiz-adv-x="1036" d="M64 -24l132 130q128 -126 316 -126q222 0 354 160q104 126 104 300q-2 192 -118 314l128 128l-48 44l-130 -128q-116 86 -276 86q-228 0 -360 -156q-100 -120 -100 -288q2 -164 86 -282l-136 -136zM308 432q0 304 108 374q44 26 102 26q134 -2 182 -134l-388 -384 q-4 72 -4 118zM518 32q-146 0 -188 166q-4 18 -8 34l396 390q12 -80 12 -182q0 -322 -122 -388q-40 -20 -90 -20z" />
<glyph unicode="&#xf9;" d="M1034 52h-78v804h-340v-50h120l-2 -482q-10 -160 -116 -224q-40 -22 -80 -22q-132 0 -152 150q-4 26 -4 52v576h-348v-50h128v-494q2 -330 286 -332q162 0 258 136q20 30 34 60l10 -176h332q0 46 -26 50q-10 2 -22 2zM768 1004q-76 70 -184 210q-38 52 -64 72 q-30 24 -60 24q-62 0 -94 -62q-12 -26 -12 -50q2 -46 38 -74q28 -22 184 -84q98 -40 162 -76z" />
<glyph unicode="&#xfa;" d="M1034 52h-78v804h-340v-50h120l-2 -482q-10 -160 -116 -224q-40 -22 -80 -22q-132 0 -152 150q-4 26 -4 52v576h-348v-50h128v-494q2 -330 286 -332q162 0 258 136q20 30 34 60l10 -176h332q0 46 -26 50q-10 2 -22 2zM760 1124q36 30 38 74q0 64 -58 98q-24 14 -48 14 q-30 0 -60 -24q-24 -18 -102 -122q-72 -92 -146 -160l30 -40q54 30 244 108q74 30 102 52z" />
<glyph unicode="&#xfb;" d="M1034 52h-78v804h-340v-50h120l-2 -482q-10 -160 -116 -224q-40 -22 -80 -22q-132 0 -152 150q-4 26 -4 52v576h-348v-50h128v-494q2 -330 286 -332q162 0 258 136q20 30 34 60l10 -176h332q0 46 -26 50q-10 2 -22 2zM816 1000l26 36q-42 42 -156 182q-74 72 -120 78 q-54 0 -110 -68q-12 -14 -40 -48q-70 -90 -122 -146l26 -34q112 66 250 124q118 -50 246 -124z" />
<glyph unicode="&#xfc;" d="M1034 52h-78v804h-340v-50h120l-2 -482q-10 -160 -116 -224q-40 -22 -80 -22q-132 0 -152 150q-4 26 -4 52v576h-348v-50h128v-494q2 -330 286 -332q162 0 258 136q20 30 34 60l10 -176h332q0 46 -26 50q-10 2 -22 2zM504 1138q0 74 -66 110q-28 14 -56 14 q-78 0 -114 -70q-12 -26 -12 -54q0 -78 70 -110q28 -12 56 -12q74 0 108 66q14 26 14 56zM876 1138q0 76 -68 110q-28 14 -58 14q-72 0 -108 -66q-14 -28 -14 -58q0 -78 70 -110q26 -12 52 -12q82 0 114 70q12 26 12 52z" />
<glyph unicode="&#xfd;" horiz-adv-x="976" d="M242 -320q-34 0 -54 52q-26 68 -48 84t-54 16q-68 0 -86 -58q-4 -14 -4 -26q0 -70 84 -110q52 -24 114 -24q164 0 278 194q44 72 84 174l298 762q22 54 50 60q8 2 18 2q42 0 48 26q2 10 2 24h-308v-50h150l-232 -584l-250 584h126v50h-446v-50h90l380 -834 q-102 -248 -196 -284q-22 -8 -44 -8zM736 1124q36 30 38 74q0 64 -58 98q-24 14 -48 14q-30 0 -60 -24q-24 -18 -102 -122q-72 -92 -146 -160l30 -40q54 30 244 108q74 30 102 52z" />
<glyph unicode="&#xfe;" horiz-adv-x="1118" d="M394 -328v404q84 -94 244 -96q192 0 312 148q104 130 104 326q0 246 -144 362q-84 68 -196 68q-164 0 -264 -122q-38 -48 -58 -106v644h-346v-52h128v-1472q0 -84 -66 -98q-24 -6 -60 -6v-52h512q0 46 -26 50q-12 2 -24 2h-116zM622 792q190 -4 192 -364 q0 -342 -162 -390q-22 -6 -48 -6q-122 0 -178 142q-34 90 -34 216q0 254 116 358q52 44 114 44z" />
<glyph unicode="&#xff;" horiz-adv-x="976" d="M242 -320q-34 0 -54 52q-26 68 -48 84t-54 16q-68 0 -86 -58q-4 -14 -4 -26q0 -70 84 -110q52 -24 114 -24q164 0 278 194q44 72 84 174l298 762q22 54 50 60q8 2 18 2q42 0 48 26q2 10 2 24h-308v-50h150l-232 -584l-250 584h126v50h-446v-50h90l380 -834 q-102 -248 -196 -284q-22 -8 -44 -8zM438 1140q0 74 -66 110q-28 14 -56 14q-78 0 -114 -70q-12 -26 -12 -54q0 -78 70 -110q28 -12 56 -12q74 0 108 66q14 26 14 56zM810 1140q0 76 -68 110q-28 14 -58 14q-72 0 -108 -66q-14 -28 -14 -58q0 -78 70 -110q26 -12 52 -12 q82 0 114 70q12 26 12 52z" />
<glyph unicode="&#x152;" horiz-adv-x="1832" d="M722 42q-276 0 -340 304q-22 106 -22 252q0 402 180 512q80 48 198 48q98 0 178 -32v-1050q-88 -34 -194 -34zM980 0h750l8 384h-52l-46 -132q-56 -160 -172 -190q-32 -8 -68 -8h-238v534h390v60h-390v498h238q160 0 230 -170q4 -14 10 -28l46 -132h52l-8 384h-736 q-38 0 -142 6q-102 4 -138 4q-270 0 -450 -166q-182 -170 -182 -438q0 -322 234 -494q168 -122 394 -122q52 0 172 6q76 4 98 4z" />
<glyph unicode="&#x153;" horiz-adv-x="1596" d="M1148 834q160 -4 162 -214q0 -94 -68 -118q-44 -12 -128 -10l-154 6q10 334 188 336zM308 432q0 308 110 376q42 26 100 26q152 0 192 -174q20 -84 20 -220q0 -326 -124 -390q-40 -20 -88 -20q-150 0 -190 174q-20 86 -20 228zM526 884q-228 0 -360 -156 q-100 -120 -100 -288q0 -232 164 -364q120 -96 282 -96q200 2 326 154q114 -152 324 -154q240 0 338 174q14 26 24 54l-50 10q-58 -126 -184 -166q-42 -14 -86 -14q-232 0 -244 392v12l202 -4q294 -6 356 80q24 34 24 80q0 160 -162 238q-98 48 -222 48q-206 -2 -314 -146 q-116 144 -318 146z" />
<glyph unicode="&#x178;" horiz-adv-x="1142" d="M872 0q-12 50 -54 54h-114v460l282 576q38 54 102 56q50 12 54 54h-354v-54h160l-280 -564l-302 564h152v54h-524v-54h100l366 -648v-444h-168v-54h580zM558 1398q0 74 -66 110q-28 14 -56 14q-78 0 -114 -70q-12 -26 -12 -54q0 -78 70 -110q26 -12 56 -12q74 0 108 66 q14 26 14 56zM930 1398q0 76 -68 110q-28 14 -58 14q-72 0 -108 -66q-14 -28 -14 -58q0 -78 70 -110q26 -12 52 -12q82 0 114 70q12 26 12 52z" />
<glyph unicode="&#x2c6;" horiz-adv-x="1000" d="M748 1000l26 36q-42 42 -156 182q-74 72 -120 78q-54 0 -110 -68q-12 -14 -40 -48q-70 -90 -122 -146l26 -34q112 66 250 124q118 -50 246 -124z" />
<glyph unicode="&#x2dc;" horiz-adv-x="1000" d="M396 1292q60 0 158 -66q80 -56 124 -56q82 4 110 112l42 -8q-26 -200 -142 -238q-22 -8 -46 -8q-60 0 -158 66q-80 56 -120 56q-80 0 -110 -92q-2 -10 -4 -18l-40 6q24 204 142 240q22 6 44 6z" />
<glyph unicode="&#x2000;" horiz-adv-x="792" />
<glyph unicode="&#x2001;" horiz-adv-x="1584" />
<glyph unicode="&#x2002;" horiz-adv-x="792" />
<glyph unicode="&#x2003;" horiz-adv-x="1584" />
<glyph unicode="&#x2004;" horiz-adv-x="528" />
<glyph unicode="&#x2005;" horiz-adv-x="396" />
<glyph unicode="&#x2006;" horiz-adv-x="264" />
<glyph unicode="&#x2007;" horiz-adv-x="264" />
<glyph unicode="&#x2008;" horiz-adv-x="198" />
<glyph unicode="&#x2009;" horiz-adv-x="316" />
<glyph unicode="&#x200a;" horiz-adv-x="88" />
<glyph unicode="&#x2010;" horiz-adv-x="720" d="M66 394h588v86h-588v-86z" />
<glyph unicode="&#x2011;" horiz-adv-x="720" d="M66 394h588v86h-588v-86z" />
<glyph unicode="&#x2012;" horiz-adv-x="720" d="M66 394h588v86h-588v-86z" />
<glyph unicode="&#x2013;" horiz-adv-x="1264" d="M132 394h1000v86h-1000v-86z" />
<glyph unicode="&#x2014;" horiz-adv-x="1664" d="M132 394h1400v86h-1400v-86z" />
<glyph unicode="&#x2018;" horiz-adv-x="378" d="M312 982q0 82 -76 116q-16 6 -28 8q-48 14 -50 44q2 60 82 144l-42 32q-124 -130 -144 -278q-2 -20 -2 -38q0 -116 86 -148q22 -8 50 -8q76 0 110 70q14 28 14 58z" />
<glyph unicode="&#x2019;" horiz-adv-x="448" d="M326 1158q0 116 -86 148q-24 8 -50 8q-74 0 -108 -70q-14 -28 -14 -58q0 -84 78 -116q12 -6 24 -8q48 -14 50 -46q0 -58 -76 -140l-4 -4l42 -30q122 128 142 278q2 20 2 38z" />
<glyph unicode="&#x201a;" horiz-adv-x="342" d="M298 102q0 108 -84 140q-22 8 -46 8q-76 0 -108 -66q-12 -26 -12 -56q0 -82 76 -112q14 -4 24 -6q46 -16 48 -44q-2 -46 -60 -118l42 -28q116 142 120 282z" />
<glyph unicode="&#x201c;" horiz-adv-x="648" d="M50 1010q0 -118 90 -144q20 -6 40 -6q76 0 108 72q10 26 10 52q0 80 -76 112q-12 4 -22 6q-46 14 -48 44q0 56 72 132l6 6l-42 30q-118 -124 -136 -268q-2 -20 -2 -36zM350 1010q0 -114 86 -142q22 -8 46 -8q74 0 106 68q12 28 12 56q0 80 -76 112q-12 4 -22 6 q-48 14 -50 44q0 54 74 132l6 6l-42 30q-120 -124 -138 -268q-2 -18 -2 -36z" />
<glyph unicode="&#x201d;" horiz-adv-x="652" d="M600 1134q0 118 -90 144q-20 6 -40 6q-76 0 -108 -72q-10 -26 -10 -52q0 -80 76 -112q12 -4 22 -6q46 -14 48 -44q0 -56 -72 -132l-6 -6l42 -30q118 124 136 268q2 20 2 36zM300 1134q0 114 -86 142q-22 8 -46 8q-74 0 -106 -68q-12 -28 -12 -56q0 -80 76 -112 q12 -4 22 -6q48 -14 50 -44q0 -54 -74 -132l-6 -6l42 -30q120 124 138 268q2 18 2 36z" />
<glyph unicode="&#x201e;" horiz-adv-x="650" d="M600 100q0 118 -90 144q-20 6 -40 6q-76 0 -108 -72q-10 -26 -10 -52q0 -80 76 -112q12 -4 22 -6q46 -14 48 -44q0 -56 -72 -132l-6 -6l42 -30q118 124 136 268q2 18 2 36zM300 100q0 114 -86 142q-22 8 -46 8q-74 0 -106 -68q-12 -28 -12 -56q0 -80 76 -112q12 -4 22 -6 q48 -14 50 -44q0 -54 -74 -132l-6 -6l42 -30q120 124 138 268q2 18 2 36z" />
<glyph unicode="&#x2022;" horiz-adv-x="704" d="M564 454q0 116 -96 180q-54 34 -116 34q-116 0 -178 -96q-34 -54 -34 -118q0 -116 98 -176q52 -32 114 -32q116 0 178 94q34 54 34 114z" />
<glyph unicode="&#x2026;" horiz-adv-x="1198" d="M740 118q0 78 -70 114q-30 16 -60 16q-80 0 -114 -72q-14 -28 -14 -58q0 -82 72 -116q28 -12 56 -12q78 0 114 68q16 28 16 60zM1128 118q0 78 -70 114q-30 16 -60 16q-80 0 -114 -72q-14 -28 -14 -58q0 -82 72 -116q28 -12 56 -12q78 0 114 68q16 28 16 60zM352 118 q0 78 -70 114q-30 16 -60 16q-80 0 -114 -72q-14 -28 -14 -58q0 -82 72 -116q28 -12 56 -12q78 0 114 68q16 28 16 60z" />
<glyph unicode="&#x202f;" horiz-adv-x="316" />
<glyph unicode="&#x2039;" horiz-adv-x="496" d="M458 756l-42 34q-58 -66 -258 -230q-70 -60 -92 -84q-30 -34 -30 -68q2 -36 30 -68q16 -18 184 -158q112 -92 168 -152l40 34q-134 224 -206 346q42 68 132 222q50 84 74 124z" />
<glyph unicode="&#x203a;" horiz-adv-x="496" d="M38 756l42 34q58 -66 258 -230q70 -60 92 -84q30 -34 30 -68q-2 -36 -30 -68q-16 -18 -184 -158q-112 -92 -168 -152l-40 34q134 224 206 346q-42 68 -132 222q-50 84 -74 124z" />
<glyph unicode="&#x205f;" horiz-adv-x="396" />
<glyph unicode="&#x20ac;" horiz-adv-x="1224" d="M1144 212q0 72 -68 98q-22 8 -46 8q-94 0 -128 -82q-6 -14 -16 -48q-28 -92 -70 -120q-44 -30 -118 -30q-174 0 -230 222q-24 98 -30 240h402l18 60h-422v38v58h444l18 60h-460q20 366 184 430q44 16 94 16q126 0 162 -94q6 -18 16 -56q22 -86 58 -110q32 -20 82 -20 q82 0 104 76q4 18 4 36q0 96 -116 164q-110 62 -274 62q-334 0 -494 -254q-68 -110 -90 -250h-136l-18 -60h146q-2 -24 -2 -68v-28h-126l-18 -60h148q32 -276 222 -418q138 -102 330 -102q288 0 392 134q38 48 38 98z" />
<glyph unicode="&#x2122;" horiz-adv-x="1158" d="M388 722q-4 28 -30 30h-40v418h4q54 0 76 -50q2 -4 4 -10q4 -8 4 -10l28 -70h28l-4 170h-424l-4 -170h28l28 70q20 50 40 60q18 10 44 10h4v-418h-70v-30h284zM792 714l152 388v-350h-56v-30h240q-4 28 -30 30h-20v418h50v30h-186l-124 -322l-164 322h-152v-30h50v-418 h-50v-30h150q-4 28 -28 30h-34v282l174 -320h28z" />
<glyph unicode="&#x25fc;" horiz-adv-x="860" d="M0 860h860v-860h-860v860z" />
</font>
</defs>
</svg>
